<svg width="50" height="50" viewBox="0 0 50 50" fill="none" xmlns="http://www.w3.org/2000/svg">
<circle cx="25" cy="25" r="25" fill="#DFF3FF"/>
<path d="M20.9243 30.0364H13.7648L12.3082 34.57C12.2673 34.7402 12.1111 34.8573 11.9362 34.8489H8.31004C8.10327 34.8489 8.03092 34.7353 8.09308 34.508L14.2917 16.7297C14.3537 16.5438 14.4157 16.362 14.4777 16.1242C14.5589 15.7107 14.6004 15.2904 14.6016 14.869C14.5867 14.7641 14.6596 14.6669 14.7645 14.652C14.7825 14.6495 14.8006 14.6495 14.8186 14.652H19.7466C19.8908 14.652 19.9735 14.7037 19.9946 14.807L27.03 34.539C27.0919 34.7457 27.03 34.8491 26.844 34.8489H22.8149C22.6717 34.8648 22.539 34.772 22.505 34.632L20.9243 30.0364ZM17.329 18.1864H17.298L14.8806 26.2136H19.7775L17.329 18.1864Z" fill="#9999FF"/>
<path d="M38.4355 28.2718H32.3299C32.4047 28.8759 32.6053 29.4577 32.9188 29.9794C33.2654 30.4961 33.7555 30.9001 34.3289 31.1416C35.1061 31.4779 35.9465 31.6426 36.793 31.6246C37.4645 31.6117 38.1337 31.5382 38.7921 31.4051C39.3809 31.3256 39.958 31.1751 40.5108 30.9571C40.6139 30.8748 40.6658 30.9261 40.6658 31.1121V34.0564C40.671 34.1366 40.6549 34.2168 40.6193 34.2889C40.5838 34.3453 40.5361 34.3929 40.4798 34.4283C39.8667 34.6999 39.2214 34.8921 38.5597 35.0004C37.6607 35.1693 36.7469 35.2471 35.8323 35.2329C34.3649 35.2329 33.1355 35.0056 32.144 34.551C31.2068 34.1381 30.379 33.5119 29.7266 32.7225C29.1172 31.9786 28.664 31.1195 28.3939 30.1966C28.1264 29.2856 27.9907 28.341 27.991 27.3917C27.9881 26.355 28.1503 25.3245 28.4714 24.3389C28.7807 23.3774 29.2697 22.4835 29.9126 21.7045C31.3293 19.9879 33.2791 19.2725 35.4603 19.2725C37.34 19.2725 39.268 19.8949 40.4812 21.3945C40.989 22.0497 41.3772 22.7894 41.6279 23.5795C41.8722 24.3409 41.9976 25.1353 41.9999 25.935C41.9999 26.3897 41.9844 26.803 41.9534 27.1747C41.9224 27.5466 41.8966 27.8153 41.8759 27.9805C41.8593 28.122 41.7394 28.2285 41.597 28.2285C41.473 28.2285 41.2612 28.244 40.9617 28.275C40.6619 28.3059 40.2901 28.3266 39.846 28.337C39.4011 28.3474 38.9314 28.2718 38.4355 28.2718ZM32.3299 25.4484H36.39C36.8859 25.4484 37.2526 25.4432 37.4903 25.4329C37.6492 25.417 37.8028 25.3661 37.9398 25.2839V25.0979C37.9336 24.8555 37.8918 24.6153 37.8158 24.3851C37.4721 23.2983 36.4445 22.5751 35.3054 22.6185C34.2396 22.5541 33.2365 23.1255 32.7485 24.0751C32.5359 24.5074 32.3947 24.9711 32.3299 25.4484Z" fill="#9999FF"/>
</svg>
