<svg width="50" height="50" viewBox="0 0 50 50" fill="none" xmlns="http://www.w3.org/2000/svg">
<circle cx="25" cy="25" r="25" fill="#DFF3FF"/>
<path d="M25.0374 25.0001C25.0374 22.0546 27.4252 19.6667 30.3707 19.6667C33.3162 19.6667 35.704 22.0546 35.704 25.0001C35.704 27.9456 33.3161 30.3334 30.3707 30.3334C27.4251 30.3334 25.0374 27.9456 25.0374 25.0001Z" fill="#00BCFF"/>
<path d="M14.3708 35.6666C14.3708 32.7211 16.7587 30.3333 19.7042 30.3333L22.5464 28.8328L25.0375 30.3333V35.6666C25.0375 38.6122 22.6497 41 19.7042 41C16.7587 41 14.3708 38.6121 14.3708 35.6666Z" fill="#00CF7F"/>
<path d="M25.0374 9L22.1353 14.0419L25.0374 19.6666H30.2959C33.2414 19.6666 35.6292 17.2788 35.6292 14.3333C35.6292 11.3878 33.2414 9 30.2959 9H25.0374Z" fill="#FF7361"/>
<path d="M14.2959 14.3333C14.2959 17.2788 16.6837 19.6666 19.6292 19.6666L22.4584 20.7594L25.0373 19.6666V9H19.6291C16.6837 9 14.2959 11.3878 14.2959 14.3333Z" fill="#FF4D12"/>
<path d="M14.3708 25C14.3708 27.9456 16.7587 30.3333 19.7042 30.3333H25.0375V19.6666H19.7042C16.7587 19.6666 14.3708 22.0545 14.3708 25Z" fill="#B659FF"/>
</svg>
