<svg width="198" height="198" viewBox="0 0 198 198" fill="none" xmlns="http://www.w3.org/2000/svg">
<circle cx="99" cy="99" r="99" fill="url(#paint0_linear_129_49)"/>
<path d="M116.145 128.513C122.235 129.221 125.126 131.432 125.554 135.602C126.217 142.097 124.467 145.099 118.762 147.063C118.762 149.054 118.773 151.095 118.762 153.131C118.746 155.254 118.016 155.989 115.893 155.989C104.318 155.994 92.7372 155.994 81.162 155.989C78.9567 155.989 78.26 155.27 78.2491 153.021C78.2381 151.029 78.2491 149.038 78.2491 147.085C72.6699 145.302 70.7499 142.35 71.5014 135.338C71.9458 131.223 75.0398 129.034 80.8658 128.535C80.6244 127.992 80.416 127.498 80.1801 127.015C77.0586 120.569 73.9591 114.117 70.7773 107.698C70.108 106.348 70.1794 105.251 70.92 103.967C78.1064 91.513 85.2545 79.0315 92.4135 66.561C92.6165 66.2044 92.7537 65.6941 93.0609 65.5405C93.785 65.1729 94.6682 64.6572 95.354 64.8054C95.9629 64.937 96.4785 65.8368 96.8735 66.4952C97.082 66.8408 96.9448 67.3949 96.9448 67.8558C96.9448 78.7188 96.9284 89.5764 96.9668 100.439C96.9668 101.827 96.6102 102.848 95.4692 103.737C93.1706 105.531 92.995 108.718 94.9315 110.798C96.8516 112.861 100.121 112.877 102.052 110.831C104.005 108.762 103.863 105.553 101.586 103.753C100.456 102.859 100.039 101.877 100.044 100.478C100.083 89.5654 100.066 78.653 100.066 67.7406C100.066 67.5869 100.072 67.4333 100.066 67.2797C100.011 66.0892 100.401 65.0961 101.597 64.734C102.87 64.35 103.725 65.0029 104.351 66.1056C107.16 71.0434 110.001 75.9646 112.826 80.8914C117.232 88.5723 121.615 96.2642 126.064 103.918C126.848 105.262 126.881 106.398 126.19 107.791C123.03 114.161 119.953 120.569 116.853 126.972C116.612 127.465 116.398 127.97 116.151 128.508L116.145 128.513ZM104.433 75.1362C104.389 75.7068 104.362 75.9427 104.362 76.1731C104.362 83.9089 104.34 91.6447 104.395 99.3805C104.395 99.995 104.79 100.725 105.218 101.202C108.624 105.015 108.498 110.584 104.877 114.095C101.328 117.54 95.6721 117.54 92.1063 114.095C88.4802 110.595 88.365 105.037 91.7552 101.197C92.2325 100.653 92.5891 99.792 92.5946 99.0733C92.6549 91.5953 92.633 84.1174 92.633 76.634V75.0978C92.249 75.608 92.0899 75.7781 91.9801 75.9811C86.3955 85.6975 80.8055 95.4084 75.2757 105.158C75.0014 105.646 75.0618 106.54 75.3196 107.078C78.5782 113.908 81.9246 120.701 85.1887 127.531C85.6111 128.414 86.1048 128.672 87.0484 128.667C94.6792 128.628 102.315 128.628 109.946 128.667C110.884 128.667 111.384 128.414 111.806 127.531C115.07 120.701 118.384 113.892 121.73 107.105C122.147 106.266 122.076 105.657 121.62 104.867C116.167 95.4303 110.753 85.9663 105.327 76.5188C105.113 76.1457 104.855 75.7891 104.439 75.1417L104.433 75.1362ZM98.6619 132.946C92.3642 132.946 86.0664 132.941 79.7741 132.946C77.7773 132.946 76.4223 133.78 75.923 135.371C75.731 135.991 75.7146 136.677 75.7091 137.335C75.6652 141.68 76.6801 142.712 80.9755 142.712C87.2184 142.712 93.4668 142.712 99.7097 142.712C105.442 142.712 111.175 142.723 116.908 142.712C119.958 142.701 121.269 141.357 121.291 138.29C121.291 138.087 121.291 137.878 121.291 137.675C121.291 134.148 120.106 132.952 116.628 132.946C110.638 132.946 104.647 132.946 98.6619 132.946ZM82.5774 151.561H114.368V147.161H82.5774V151.561Z" fill="#DFF3FF"/>
<path d="M72.6533 50.6725C71.8578 50.6725 71.0624 50.6725 70.2614 50.6725C65.8563 50.6725 61.4512 50.6889 57.046 50.656C56.1793 50.6505 55.7184 50.881 55.3125 51.7314C53.7435 55.0232 50.2984 56.6636 46.9191 55.8681C43.4192 55.0451 41.0328 52.1044 41.0109 48.5931C40.9889 45.0599 43.3369 42.0808 46.8094 41.2249C50.26 40.3745 53.6228 42.0259 55.3948 45.3342C55.6416 45.7951 56.3219 46.3218 56.8046 46.3218C67.919 46.3766 79.0388 46.3602 90.1532 46.3547C90.3506 46.3547 90.5481 46.2943 90.9815 46.2175C90.9815 45.3178 90.9541 44.418 90.987 43.5182C91.0528 41.7461 91.7879 41.0219 93.5654 41.011C96.8459 40.989 100.121 40.989 103.402 41.011C105.25 41.0219 105.958 41.7516 106.013 43.6389C106.04 44.4948 106.013 45.3452 106.013 46.3657C106.726 46.3657 107.231 46.3657 107.73 46.3657C118.383 46.3657 129.042 46.3547 139.696 46.3876C140.738 46.3876 141.309 46.1298 141.797 45.1258C143.344 41.9491 146.806 40.4075 150.152 41.2249C153.625 42.0698 155.989 45.0544 155.972 48.5767C155.956 52.088 153.57 55.0396 150.07 55.8681C146.734 56.6581 143.289 55.0671 141.748 51.8795C141.298 50.9468 140.804 50.645 139.789 50.656C135.077 50.7109 130.364 50.678 125.652 50.6835C125.213 50.6835 124.769 50.7328 124.006 50.7822C140.623 59.522 149.581 73.0185 151.233 91.5405C152.001 91.5405 152.758 91.5131 153.509 91.546C155.188 91.6228 155.951 92.3635 155.967 94.0313C156 97.005 155.994 99.9731 155.967 102.947C155.951 104.626 155.204 105.432 153.542 105.459C150.52 105.509 147.497 105.509 144.474 105.459C142.806 105.432 142.11 104.647 142.093 102.919C142.066 100.05 142.077 97.1805 142.093 94.3111C142.104 92.2428 142.779 91.5789 144.869 91.5405C145.429 91.5295 145.988 91.5405 146.548 91.5405C146.762 72.2669 129.289 51.5777 105.996 50.8974C105.996 51.8411 106.04 52.7902 105.985 53.7339C105.898 55.314 105.146 56.0546 103.555 56.0711C100.176 56.0985 96.791 56.0985 93.4118 56.0711C91.8154 56.0546 91.0693 55.314 90.9815 53.7339C90.9321 52.8231 90.9705 51.9069 90.9705 50.9962C71.3476 50.9139 50.8744 68.58 50.3149 91.546C51.0609 91.546 51.8125 91.5076 52.5586 91.5515C54.0946 91.6393 54.8462 92.347 54.8626 93.8503C54.901 96.9775 54.8846 100.099 54.8626 103.227C54.8517 104.664 54.0014 105.427 52.6409 105.448C49.5194 105.509 46.3925 105.514 43.2655 105.448C41.713 105.416 41.0109 104.576 40.9944 102.947C40.967 100.028 40.9725 97.1037 40.9944 94.185C41.0054 92.3306 41.746 91.5954 43.6057 91.5405C44.3079 91.5186 45.0155 91.5405 45.7287 91.5405C47.3745 73.0185 56.3493 59.522 72.6313 50.678L72.6533 50.6725ZM101.586 51.7204V45.411H95.4086V51.7204H101.586ZM148.424 51.7533C150.174 51.7698 151.655 50.3214 151.672 48.5657C151.688 46.8156 150.229 45.3287 148.484 45.3178C146.734 45.3068 145.253 46.7552 145.237 48.5108C145.215 50.2555 146.668 51.7368 148.424 51.7533ZM48.532 51.7643C50.2765 51.7643 51.7522 50.2939 51.7631 48.5438C51.7741 46.8046 50.2984 45.3233 48.5484 45.3178C46.8039 45.3178 45.3282 46.7826 45.3227 48.5328C45.3227 50.2829 46.793 51.7643 48.532 51.7643ZM45.427 95.9132V101.043H50.4685V95.9132H45.427ZM146.46 101.054H151.578V95.9516H146.46V101.054Z" fill="#DFF3FF"/>
<defs>
<linearGradient id="paint0_linear_129_49" x1="179.791" y1="16.5" x2="-21.1275" y2="109.511" gradientUnits="userSpaceOnUse">
<stop stop-color="#099FCA"/>
<stop offset="1" stop-color="#0961AC"/>
</linearGradient>
</defs>
</svg>
