<svg width="22" height="21" viewBox="0 0 22 21" fill="none" xmlns="http://www.w3.org/2000/svg">
<path d="M18.2473 20.998H18.2392C15.2897 20.9889 10.805 20.0913 6.18879 15.8608C1.57356 11.6303 0.284627 7.23475 0.0143838 4.29232C-0.161425 2.37028 1.29226 0.672641 3.39594 0.342573L5.25851 0.0507449C7.51087 -0.297437 9.59948 1.18083 10.0204 3.41985L10.3178 5.00076C10.5207 6.07851 9.92598 7.14519 8.90328 7.53765C8.7124 7.61111 8.56573 7.75502 8.50043 7.93212C8.46124 8.03678 8.43613 8.20081 8.53358 8.38094C8.95451 9.15579 9.64569 10.2547 10.5519 11.0859C11.459 11.9181 12.6123 12.5098 13.4201 12.86C13.6089 12.9435 13.7687 12.9023 13.8691 12.855C14.0389 12.7745 14.1685 12.6145 14.2248 12.4172C14.5241 11.3626 15.5368 10.6753 16.6218 10.782L18.2201 10.939C20.4846 11.1593 22.1412 13.1156 21.9905 15.3919L21.8649 17.2757C21.7233 19.4 20.1681 21 18.2443 21L18.2473 20.998ZM7.20647 14.7468C11.4671 18.6513 15.5599 19.4805 18.2432 19.4885H18.2483C19.5362 19.4885 20.2877 18.3252 20.363 17.174L20.4886 15.2902C20.585 13.8331 19.5251 12.5813 18.0755 12.4404L16.4761 12.2834C16.1135 12.2492 15.7759 12.4776 15.6754 12.8298C15.5006 13.4467 15.0767 13.9528 14.5151 14.2185C13.9736 14.4751 13.3728 14.4832 12.8223 14.2437C11.9091 13.8482 10.5971 13.172 9.53519 12.1979C8.47531 11.2258 7.68668 9.97694 7.21049 9.10044C6.92317 8.57113 6.87997 7.97036 7.08692 7.40784C7.30191 6.82318 7.76806 6.35625 8.3648 6.12782C8.70637 5.997 8.90529 5.64077 8.83798 5.28051L8.54061 3.69961C8.27037 2.26663 6.94025 1.3197 5.49158 1.54309L3.63002 1.83492C2.49078 2.01304 1.39875 2.8684 1.51629 4.15546C1.76142 6.83223 2.94688 10.8424 7.20647 14.7468Z" fill="#099FCA"/>
</svg>
