<svg width="198" height="198" viewBox="0 0 198 198" fill="none" xmlns="http://www.w3.org/2000/svg">
<circle cx="99" cy="99" r="99" fill="url(#paint0_linear_129_67)"/>
<path d="M125.522 40C126.215 40.2135 126.915 40.3866 127.592 40.6405C131.545 42.1292 133.924 45.6258 133.983 50.063C134.017 52.9596 133.988 55.8504 133.988 58.747C133.988 87.9552 133.983 117.169 134 146.377C134 149.909 132.892 152.874 129.994 155.05C128.32 156.308 126.408 156.977 124.309 156.977C107.101 156.994 89.8932 157.012 72.6855 156.971C67.6707 156.96 63.6064 153.146 63.0933 148.201C63.035 147.635 63.0058 147.058 63.0058 146.493C63 114.503 63.0117 82.514 63 50.5246C63 46.0586 64.8368 42.7466 68.9769 40.8194C69.7641 40.4558 70.6388 40.2654 71.4727 40C89.4909 40 107.503 40 125.522 40ZM82.7676 43.9525C82.2603 43.9294 81.8871 43.8948 81.5139 43.8948C78.8199 43.8948 76.1259 43.889 73.4319 43.8948C69.3909 43.9006 66.971 46.2721 66.9652 50.2996C66.9593 82.439 66.9593 114.578 66.9652 146.718C66.9652 150.734 69.3968 153.105 73.4494 153.105C90.1556 153.105 106.856 153.105 123.562 153.105C124.064 153.105 124.571 153.105 125.055 153.019C128.239 152.459 130.041 150.099 130.041 146.487C130.041 114.498 130.041 82.514 130.041 50.5246C130.041 50.0284 130.023 49.5322 129.965 49.0417C129.673 46.5952 127.941 44.6103 125.51 44.1083C124.507 43.9006 123.451 43.9179 122.414 43.9063C119.731 43.8833 117.049 43.9006 114.238 43.9006C114.238 44.7488 114.267 45.4585 114.238 46.174C114.104 49.1629 111.684 51.6383 108.67 51.6613C101.894 51.719 95.1238 51.719 88.348 51.6613C85.3333 51.6383 82.9134 49.1571 82.7851 46.1682C82.7559 45.4527 82.7851 44.743 82.7851 43.9583L82.7676 43.9525ZM86.7386 43.9294C86.7211 44.3391 86.6978 44.6391 86.6919 44.9392C86.6744 47.2357 87.2109 47.7838 89.4967 47.7838C91.8817 47.7838 94.2666 47.7838 96.6515 47.7838C100.459 47.7838 104.267 47.7896 108.075 47.7838C109.323 47.7838 110.127 47.2126 110.25 46.1913C110.337 45.4585 110.267 44.7084 110.267 43.9352H86.7328L86.7386 43.9294Z" fill="#DFF3FF"/>
<path d="M75.0997 106.269C73.9334 106.287 73.1054 105.64 72.9072 104.706C72.7031 103.742 73.3037 102.778 74.3999 102.444C76.4933 101.809 78.5983 101.221 80.7034 100.615C94.0859 96.7545 107.474 92.8943 120.857 89.0399C121.189 88.9418 121.521 88.8322 121.86 88.7802C122.839 88.6418 123.702 89.1841 124.011 90.1131C124.315 91.0133 123.918 91.9884 123.014 92.4096C122.495 92.652 121.93 92.7962 121.381 92.9578C106.337 97.2969 91.2986 101.636 76.2542 105.975C75.8111 106.102 75.3621 106.2 75.0997 106.264V106.269Z" fill="#DFF3FF"/>
<path d="M96.4765 68.6715C96.4765 70.9968 96.5756 73.3222 96.4532 75.636C96.2491 79.525 93.2869 82.4389 89.2692 82.8717C85.718 83.2583 82.1494 80.8464 81.1056 77.3093C80.8957 76.5881 80.7616 75.8149 80.7557 75.0648C80.7207 70.6449 80.6974 66.2308 80.7849 61.8109C80.7966 61.1242 81.2397 60.2126 81.7878 59.8144C83.0532 58.8912 84.6568 59.9298 84.6684 61.6205C84.6976 65.5787 84.6801 69.5428 84.6801 73.5011C84.6801 74.0723 84.6568 74.6435 84.6976 75.2148C84.855 77.4132 86.5869 79.0461 88.6978 79.0057C90.8378 78.9653 92.523 77.3266 92.5521 75.1051C92.5988 70.9161 92.5696 66.727 92.5755 62.5379C92.5755 62.1975 92.558 61.8513 92.5871 61.5108C92.6921 60.3049 93.4676 59.5144 94.5406 59.5028C95.6543 59.4913 96.4882 60.3106 96.5057 61.5916C96.5465 63.9516 96.5173 66.3115 96.5173 68.6773C96.5057 68.6773 96.494 68.6773 96.4823 68.6773L96.4765 68.6715Z" fill="#DFF3FF"/>
<path d="M96.4765 121.393C96.4765 123.712 96.5815 126.044 96.4532 128.357C96.2491 132.125 93.1645 135.195 89.4442 135.506C85.549 135.835 82.0386 133.458 81.0532 129.788C80.8666 129.096 80.7674 128.363 80.7616 127.648C80.7325 123.268 80.7325 118.889 80.7616 114.509C80.7616 113.973 80.9307 113.361 81.2223 112.911C81.7121 112.149 82.5459 111.999 83.3798 112.276C84.2253 112.559 84.6685 113.205 84.6743 114.105C84.6801 116.506 84.6801 118.9 84.686 121.301C84.686 123.355 84.6685 125.415 84.6918 127.469C84.721 129.898 86.3945 131.629 88.6512 131.629C90.937 131.629 92.5522 129.938 92.5638 127.451C92.5872 123.337 92.5697 119.229 92.5755 115.115C92.5755 114.734 92.558 114.348 92.6105 113.973C92.7563 112.836 93.5318 112.149 94.6106 112.166C95.6835 112.19 96.4707 112.899 96.494 114.065C96.5465 116.5 96.5115 118.941 96.5115 121.376C96.4999 121.376 96.494 121.376 96.4824 121.376L96.4765 121.393Z" fill="#DFF3FF"/>
<path d="M108.355 67.3963C109.072 66.2135 109.684 65.2095 110.296 64.2055C111.031 62.9995 111.743 61.7821 112.506 60.5934C113.183 59.5433 114.326 59.2605 115.282 59.8433C116.198 60.403 116.442 61.4705 115.894 62.5379C115.772 62.7745 115.626 62.9995 115.486 63.2303C114.081 65.5441 112.705 67.881 111.259 70.166C110.792 70.8988 110.734 71.4354 111.229 72.2028C112.775 74.6089 114.238 77.067 115.69 79.5308C115.964 80.004 116.198 80.5983 116.174 81.1234C116.139 81.9831 115.597 82.5947 114.693 82.7909C113.748 82.9987 113.025 82.6409 112.536 81.8504C111.375 79.9694 110.238 78.071 109.084 76.1842C108.868 75.8322 108.64 75.4918 108.343 75.0302C106.938 77.3382 105.608 79.5135 104.29 81.6946C103.795 82.5197 103.124 83.0275 102.115 82.8544C100.658 82.6063 100.057 81.1349 100.879 79.7443C102.395 77.1882 103.929 74.6378 105.515 72.122C105.941 71.4469 105.952 70.968 105.521 70.2872C103.935 67.7714 102.413 65.2153 100.879 62.6649C100.383 61.8398 100.319 61.0031 100.978 60.2299C101.567 59.5375 102.378 59.3413 103.165 59.7048C103.643 59.9299 104.069 60.4088 104.36 60.8704C105.684 62.9649 106.949 65.0941 108.349 67.3963H108.355Z" fill="#DFF3FF"/>
<path d="M106.32 131.64V116.067C105.13 116.067 103.987 116.079 102.844 116.067C101.369 116.044 100.506 115.317 100.5 114.117C100.494 112.911 101.34 112.184 102.827 112.178C106.524 112.166 110.215 112.166 113.912 112.178C115.352 112.178 116.267 112.974 116.244 114.14C116.215 115.3 115.299 116.05 113.848 116.067C112.705 116.084 111.562 116.067 110.366 116.067V131.64C111.521 131.64 112.658 131.635 113.795 131.64C115.311 131.652 116.262 132.425 116.244 133.62C116.227 134.785 115.317 135.524 113.853 135.53C110.197 135.535 106.541 135.535 102.885 135.53C101.381 135.53 100.535 134.843 100.506 133.637C100.477 132.385 101.351 131.652 102.902 131.635C104.01 131.623 105.118 131.635 106.32 131.635V131.64Z" fill="#DFF3FF"/>
<path d="M98.3776 149.21C93.9925 149.21 89.6133 149.205 85.2283 149.21C84.3362 149.21 83.5373 149.055 83.0358 148.235C82.3128 147.064 83.0067 145.564 84.377 145.339C84.6394 145.298 84.9134 145.304 85.1817 145.304C94.0625 145.304 102.943 145.304 111.83 145.304C113.276 145.304 114.063 145.858 114.221 146.925C114.413 148.264 113.48 149.187 111.877 149.193C107.684 149.205 103.491 149.193 99.3047 149.193C98.9957 149.193 98.6866 149.193 98.3834 149.193L98.3776 149.21Z" fill="#DFF3FF"/>
<defs>
<linearGradient id="paint0_linear_129_67" x1="179.791" y1="16.5" x2="-21.1275" y2="109.511" gradientUnits="userSpaceOnUse">
<stop stop-color="#099FCA"/>
<stop offset="1" stop-color="#0961AC"/>
</linearGradient>
</defs>
</svg>
