<svg width="23" height="17" viewBox="0 0 23 17" fill="none" xmlns="http://www.w3.org/2000/svg">
<path d="M11.5038 17C8.42185 17 5.33987 17 2.2579 16.9967C0.7829 16.9967 0.00369541 16.1693 0.00158375 14.6062C-0.000527916 10.7073 -0.000527916 6.70912 0.00158375 2.38487C0.00263958 0.825102 0.780789 0 2.25368 0C3.5798 0 19.4268 0 20.7424 0C22.2174 0 22.9966 0.823985 22.9976 2.3804C23.0008 6.26809 23.0008 10.3802 22.9976 14.6029C22.9976 16.1682 22.2184 16.9955 20.7455 16.9967C17.6646 16.9989 14.5837 17 11.5028 17H11.5038ZM1.26436 6.04368C1.26436 8.8785 1.26436 11.7144 1.26436 14.5493C1.26436 15.5485 1.598 15.658 2.30752 15.658H11.9061H20.6727C21.5152 15.658 21.7338 15.4246 21.7338 14.5258V2.04433C21.7338 2.04433 15.0198 7.64475 12.113 10.0899C11.8332 10.3255 11.6495 10.426 11.4985 10.426C11.3476 10.426 11.1712 10.3288 10.8999 10.1C7.98368 7.64475 1.26436 2.05773 1.26436 2.05773V6.04368ZM11.0519 8.52568C11.1512 8.60942 11.3064 8.72107 11.5028 8.72107C11.6992 8.72107 11.8554 8.6083 11.9536 8.52345C12.7223 7.86359 20.4256 1.38559 20.4256 1.38559H2.56198C2.56198 1.38559 9.02473 6.81072 11.0519 8.52568Z" fill="url(#paint0_linear_111_49)"/>
<defs>
<linearGradient id="paint0_linear_111_49" x1="20.8848" y1="1.41667" x2="0.529123" y2="14.1658" gradientUnits="userSpaceOnUse">
<stop stop-color="#099FCA"/>
<stop offset="1" stop-color="#0961AC"/>
</linearGradient>
</defs>
</svg>
