<svg width="150" height="150" viewBox="0 0 150 150" fill="none" xmlns="http://www.w3.org/2000/svg">
<circle cx="75" cy="75" r="75" fill="url(#paint0_linear_129_69)"/>
<path d="M82.4251 104.847H81.2963C66.2008 104.847 51.1053 104.847 36.0099 104.847C32.7364 104.847 31.0649 103.184 31.0649 99.9235C31.0605 80.3736 31.0605 60.8194 31.0605 41.2652C31.0605 38.0438 32.732 36.3636 35.9317 36.3636C61.2211 36.3636 86.5104 36.3636 111.8 36.3636C114.999 36.3636 116.667 38.0438 116.667 41.2739C116.667 65.5821 116.667 89.8902 116.667 114.198C116.667 119.022 113.719 121.97 108.9 121.97C102.6 121.97 96.3005 121.97 90.001 121.97C85.4294 121.97 82.4337 118.952 82.4294 114.359C82.4294 111.507 82.4294 108.654 82.4294 105.802V104.851L82.4251 104.847ZM82.4251 101.994V100.835C82.4251 92.3345 82.4251 83.8382 82.4251 75.3375C82.4251 70.7572 85.4381 67.7572 90.0227 67.7528C95.7275 67.7528 101.437 67.7615 107.141 67.7485C109.425 67.7441 111.73 67.5835 113.771 69.2116V50.682H33.9129V51.6024C33.9129 67.7094 33.9129 83.8164 33.9129 99.9235C33.9129 101.604 34.3123 101.999 36.0316 101.999C51.1574 101.999 66.2833 101.999 81.4135 101.999H82.4251V101.994ZM113.766 110.517V79.2231H85.3426V110.517H113.766ZM33.9173 47.7211H113.814C113.814 45.5937 113.814 43.5185 113.814 41.4432C113.814 39.5633 113.463 39.216 111.583 39.216C86.4453 39.216 61.3079 39.216 36.1705 39.216C35.9013 39.216 35.6365 39.203 35.3673 39.2204C34.4773 39.2811 33.9346 39.7978 33.9216 40.7008C33.8999 43.0149 33.9129 45.3289 33.9129 47.7167L33.9173 47.7211ZM113.81 76.2969C113.81 75.7803 113.819 75.3418 113.81 74.9033C113.753 72.4634 111.934 70.6226 109.486 70.6182C102.856 70.6009 96.2311 70.5965 89.6016 70.6182C86.6363 70.6313 84.6349 73.3751 85.4207 76.2969H113.81ZM113.78 113.473H85.2818C85.2818 114.007 85.2688 114.485 85.2818 114.954C85.3643 117.237 87.1703 119.091 89.467 119.1C96.1833 119.13 102.9 119.126 109.616 119.1C111.188 119.096 112.395 118.323 113.215 116.986C113.875 115.918 113.866 114.732 113.775 113.473H113.78Z" fill="#DFF3FF"/>
<path d="M58.2603 59.1913C64.7118 59.1913 71.159 59.1913 77.6105 59.1913C79.1257 59.1913 79.5729 59.6341 79.5729 61.1536C79.5729 71.2607 79.5729 81.3634 79.5729 91.4705C79.5729 92.9857 79.1257 93.4328 77.6105 93.4328C64.6511 93.4328 51.6916 93.4328 38.7322 93.4328C37.217 93.4328 36.7742 92.9857 36.7742 91.4705C36.7742 81.3634 36.7742 71.2607 36.7742 61.1536C36.7742 59.6341 37.217 59.1956 38.7365 59.1956C45.2445 59.1956 51.7568 59.1956 58.2647 59.1956L58.2603 59.1913ZM76.6771 62.1044H39.6786V86.8771C39.9565 86.4604 40.1388 86.1999 40.3038 85.935C43.8291 80.2954 47.3501 74.6558 50.8754 69.0205C51.8957 67.3881 53.0201 67.3794 54.0317 68.9988C56.7582 73.3533 59.476 77.7079 62.2024 82.0624C62.3674 82.3272 62.5454 82.5877 62.7799 82.935C64.0736 81.0899 65.311 79.3186 66.5526 77.5472C67.7292 75.8671 68.5932 75.8801 69.7827 77.582C71.8753 80.5733 73.968 83.5646 76.0649 86.5559C76.2255 86.786 76.4079 86.9987 76.6727 87.346V62.1044H76.6771ZM64.1518 90.5631C60.2184 84.2766 56.3761 78.1333 52.4601 71.8772C48.5223 78.1767 44.6801 84.3243 40.777 90.5631H64.1518ZM68.159 80.2259C66.9347 81.9756 65.8016 83.5689 64.7118 85.1883C64.5773 85.388 64.5773 85.8135 64.6988 86.0262C65.5237 87.4285 66.3964 88.8091 67.2733 90.181C67.3819 90.3547 67.6163 90.5588 67.7943 90.5631C70.269 90.5891 72.7437 90.5805 75.3963 90.5805C72.939 87.0725 70.5903 83.7122 68.1503 80.2259H68.159Z" fill="#DFF3FF"/>
<path d="M96.7912 106.271C95.6667 106.266 95.0763 105.359 95.3932 104.235C96.4395 100.523 97.5032 96.8193 98.5625 93.1116C99.3527 90.3461 100.143 87.5805 100.946 84.815C101.259 83.7426 101.971 83.2564 102.8 83.5125C103.655 83.7774 103.976 84.5285 103.664 85.6182C101.827 92.0653 99.9779 98.5038 98.1458 104.951C97.9287 105.724 97.5162 106.21 96.7912 106.271Z" fill="#DFF3FF"/>
<path d="M108.965 94.8612C107.51 93.4155 106.143 92.0566 104.78 90.6977C104.589 90.511 104.389 90.3287 104.224 90.1203C103.703 89.4778 103.72 88.7397 104.254 88.184C104.784 87.6326 105.596 87.5284 106.178 88.0928C108.157 90.0161 110.115 91.9698 112.034 93.9539C112.612 94.553 112.516 95.2997 111.943 95.8815C110.072 97.7874 108.183 99.6803 106.273 101.552C105.631 102.181 104.758 102.138 104.206 101.552C103.655 100.965 103.677 100.145 104.328 99.485C105.826 97.9654 107.354 96.4676 108.969 94.8612H108.965Z" fill="#DFF3FF"/>
<path d="M90.1487 94.9003C91.577 96.3113 92.9229 97.6441 94.2731 98.977C94.4641 99.1637 94.6638 99.346 94.8331 99.5501C95.3932 100.219 95.3802 100.991 94.8158 101.552C94.2514 102.112 93.4395 102.155 92.8187 101.552C90.9084 99.6847 89.0242 97.7961 87.153 95.8902C86.5148 95.2389 86.5191 94.4792 87.1573 93.828C89.0025 91.9437 90.8737 90.0769 92.7536 88.2274C93.4135 87.5762 94.234 87.5762 94.8201 88.1406C95.4279 88.7267 95.4149 89.5646 94.7289 90.2679C93.4656 91.566 92.1761 92.8294 90.8954 94.1145C90.6696 94.3403 90.4526 94.579 90.14 94.9046L90.1487 94.9003Z" fill="#DFF3FF"/>
<path d="M84.5656 44.9251C76.4817 44.9251 68.3978 44.9251 60.3095 44.9251C60.0143 44.9251 59.7061 44.9555 59.4195 44.9034C58.6511 44.7645 58.1865 44.2913 58.1865 43.5011C58.1865 42.711 58.6511 42.2377 59.4152 42.0945C59.6757 42.0467 59.9492 42.0728 60.214 42.0728C76.4426 42.0728 92.6712 42.0728 108.9 42.0728C109.169 42.0728 109.442 42.0467 109.699 42.0945C110.467 42.2377 110.932 42.711 110.932 43.4968C110.932 44.2869 110.467 44.7602 109.699 44.9034C109.412 44.9555 109.104 44.9251 108.809 44.9251C100.725 44.9251 92.6408 44.9251 84.5526 44.9251H84.5656Z" fill="#DFF3FF"/>
<path d="M38.9102 44.925C38.819 44.925 38.7322 44.925 38.641 44.925C37.4384 44.9163 36.7742 44.4127 36.7742 43.4967C36.7742 42.5806 37.4341 42.077 38.6367 42.0683C38.9319 42.0683 39.2315 42.0596 39.5267 42.0683C40.4384 42.1117 41.0375 42.6805 41.0375 43.488C41.0375 44.2955 40.4384 44.8643 39.531 44.912C39.3226 44.925 39.1142 44.912 38.9059 44.912L38.9102 44.925Z" fill="#DFF3FF"/>
<path d="M44.6496 42.0727C44.8276 42.0727 45.0056 42.0684 45.1836 42.0727C46.1431 42.1118 46.7682 42.6935 46.7465 43.5315C46.7248 44.3346 46.1214 44.886 45.201 44.9207C44.8146 44.9338 44.4282 44.9338 44.0418 44.9207C43.078 44.886 42.4571 44.2999 42.4788 43.462C42.5005 42.6545 43.0997 42.1118 44.0201 42.0727C44.2285 42.064 44.4368 42.0727 44.6452 42.0727H44.6496Z" fill="#DFF3FF"/>
<path d="M50.3544 42.0727C50.5324 42.0727 50.7104 42.0684 50.8884 42.0727C51.8479 42.1118 52.4731 42.6935 52.4514 43.5315C52.4297 44.3346 51.8262 44.886 50.9058 44.9207C50.5194 44.9338 50.133 44.9338 49.7466 44.9207C48.7828 44.886 48.1619 44.2999 48.1837 43.462C48.2054 42.6545 48.8045 42.1118 49.7249 42.0727C49.9333 42.064 50.1417 42.0727 50.3501 42.0727H50.3544Z" fill="#DFF3FF"/>
<path d="M99.483 74.8816C99.0098 74.8816 98.5279 74.912 98.059 74.8729C97.2645 74.8121 96.7175 74.2304 96.7001 73.488C96.6827 72.7108 97.2515 72.0813 98.0937 72.0509C99.0706 72.0118 100.056 72.0118 101.033 72.0509C101.827 72.0856 102.379 72.6891 102.392 73.4315C102.409 74.2043 101.836 74.8165 100.998 74.8729C100.495 74.9076 99.9866 74.8772 99.483 74.8772V74.8816Z" fill="#DFF3FF"/>
<path d="M99.5609 114.841C100.039 114.841 100.512 114.815 100.985 114.845C101.827 114.902 102.4 115.501 102.387 116.278C102.379 117.02 101.832 117.633 101.037 117.667C100.03 117.711 99.0139 117.715 98.0067 117.667C97.2209 117.628 96.6825 116.986 96.6955 116.243C96.7042 115.497 97.2513 114.932 98.0414 114.845C98.1022 114.837 98.1586 114.841 98.2194 114.841C98.6666 114.841 99.1094 114.841 99.5566 114.841H99.5609Z" fill="#DFF3FF"/>
<path d="M63.8782 73.4576C61.5555 73.4707 59.6105 71.5517 59.5975 69.2333C59.5845 66.8542 61.5034 64.9092 63.8652 64.9092C66.2009 64.9092 68.1242 66.8064 68.1459 69.1335C68.1676 71.5039 66.2487 73.4489 63.8739 73.462L63.8782 73.4576ZM65.2979 69.1856C65.2979 68.4171 64.6727 67.7746 63.9086 67.7572C63.1054 67.7442 62.4368 68.4128 62.4585 69.216C62.4802 69.9844 63.1271 70.6096 63.8956 70.5966C64.664 70.5879 65.2979 69.9497 65.3022 69.1812L65.2979 69.1856Z" fill="#DFF3FF"/>
<defs>
<linearGradient id="paint0_linear_129_69" x1="136.205" y1="12.5" x2="-16.0057" y2="82.963" gradientUnits="userSpaceOnUse">
<stop stop-color="#099FCA"/>
<stop offset="1" stop-color="#0961AC"/>
</linearGradient>
</defs>
</svg>
