<svg width="150" height="150" viewBox="0 0 150 150" fill="none" xmlns="http://www.w3.org/2000/svg">
<circle cx="75" cy="75" r="75" fill="url(#paint0_linear_129_67)"/>
<path d="M95.0921 30.303C95.6178 30.4647 96.1479 30.5959 96.6603 30.7882C99.6554 31.916 101.458 34.565 101.502 37.9265C101.528 40.1209 101.506 42.3109 101.506 44.5053C101.506 66.6327 101.502 88.7644 101.515 110.892C101.515 113.567 100.676 115.814 98.4803 117.462C97.2125 118.415 95.7635 118.922 94.1732 118.922C81.1371 118.935 68.101 118.948 55.0648 118.917C51.2657 118.909 48.1867 116.019 47.798 112.273C47.7538 111.845 47.7317 111.408 47.7317 110.979C47.7273 86.7449 47.7361 62.5105 47.7273 38.2762C47.7273 34.8928 49.1188 32.3837 52.2553 30.9237C52.8516 30.6483 53.5143 30.5041 54.146 30.303C67.7961 30.303 81.4419 30.303 95.0921 30.303ZM62.7027 33.2973C62.3184 33.2798 62.0357 33.2536 61.753 33.2536C59.7121 33.2536 57.6712 33.2492 55.6303 33.2536C52.5689 33.258 50.7356 35.0546 50.7312 38.1057C50.7268 62.4537 50.7268 86.8017 50.7312 111.15C50.7312 114.192 52.5733 115.989 55.6435 115.989C68.2997 115.989 80.9516 115.989 93.6078 115.989C93.9877 115.989 94.372 115.989 94.7387 115.923C97.1506 115.499 98.5157 113.711 98.5157 110.975C98.5157 86.7405 98.5157 62.5105 98.5157 38.2762C98.5157 37.9003 98.5024 37.5243 98.4582 37.1528C98.2374 35.2993 96.9254 33.7956 95.0832 33.4153C94.3234 33.258 93.5239 33.2711 92.7375 33.2623C90.7055 33.2448 88.6734 33.258 86.5442 33.258C86.5442 33.9005 86.5662 34.4382 86.5442 34.9802C86.4426 37.2446 84.6093 39.1198 82.3254 39.1373C77.1922 39.181 72.0635 39.181 66.9303 39.1373C64.6464 39.1198 62.8132 37.2402 62.716 34.9759C62.6939 34.4338 62.716 33.8962 62.716 33.3017L62.7027 33.2973ZM65.7111 33.2798C65.6978 33.5902 65.6801 33.8175 65.6757 34.0448C65.6625 35.7846 66.0689 36.1998 67.8006 36.1998C69.6073 36.1998 71.4141 36.1998 73.2209 36.1998C76.1055 36.1998 78.9902 36.2042 81.8748 36.1998C82.8202 36.1998 83.4298 35.7671 83.5226 34.9934C83.5888 34.4382 83.5358 33.8699 83.5358 33.2842H65.7067L65.7111 33.2798Z" fill="#DFF3FF"/>
<path d="M56.8938 80.507C56.0103 80.5202 55.383 80.0306 55.2328 79.3224C55.0782 78.5924 55.5332 77.8624 56.3637 77.6089C57.9496 77.128 59.5443 76.6822 61.139 76.2232C71.2773 73.2988 81.4199 70.3744 91.5582 67.4544C91.81 67.3801 92.0618 67.297 92.318 67.2577C93.0601 67.1528 93.7139 67.5637 93.948 68.2675C94.1778 68.9494 93.8774 69.6881 93.1926 70.0072C92.7995 70.1908 92.371 70.3001 91.9557 70.4225C80.5585 73.7097 69.1657 76.9969 57.7685 80.2841C57.4327 80.3803 57.0926 80.4546 56.8938 80.5027V80.507Z" fill="#DFF3FF"/>
<path d="M73.0882 52.0239C73.0882 53.7855 73.1633 55.5471 73.0705 57.3C72.9159 60.2462 70.6718 62.4537 67.6281 62.7816C64.9379 63.0745 62.2343 61.2473 61.4436 58.5677C61.2846 58.0213 61.183 57.4355 61.1785 56.8672C61.152 53.5188 61.1344 50.1748 61.2006 46.8264C61.2095 46.3062 61.5452 45.6156 61.9605 45.314C62.9191 44.6146 64.1339 45.4014 64.1427 46.6822C64.1648 49.6809 64.1515 52.6839 64.1515 55.6826C64.1515 56.1154 64.1339 56.5481 64.1648 56.9809C64.2841 58.6464 65.5961 59.8834 67.1952 59.8528C68.8165 59.8222 70.0931 58.5808 70.1152 56.8978C70.1506 53.7243 70.1285 50.5507 70.1329 47.3772C70.1329 47.1193 70.1196 46.857 70.1417 46.5991C70.2212 45.6855 70.8088 45.0867 71.6216 45.0779C72.4653 45.0692 73.0971 45.6899 73.1103 46.6603C73.1412 48.4482 73.1191 50.236 73.1191 52.0282C73.1103 52.0282 73.1015 52.0282 73.0926 52.0282L73.0882 52.0239Z" fill="#DFF3FF"/>
<path d="M73.0883 91.9643C73.0883 93.7216 73.1678 95.4876 73.0706 97.2405C72.916 100.095 70.5792 102.42 67.7608 102.656C64.8099 102.906 62.1505 101.105 61.4039 98.3245C61.2626 97.8 61.1875 97.2448 61.1831 96.7028C61.161 93.385 61.161 90.0672 61.1831 86.7494C61.1831 86.3429 61.3112 85.8795 61.5321 85.5385C61.9031 84.9615 62.5348 84.8479 63.1665 85.0577C63.8071 85.2719 64.1428 85.7615 64.1472 86.4434C64.1517 88.2618 64.1517 90.0759 64.1561 91.8944C64.1561 93.4506 64.1428 95.0111 64.1605 96.5673C64.1826 98.4076 65.4504 99.719 67.16 99.719C68.8917 99.719 70.1153 98.4382 70.1242 96.5542C70.1418 93.4374 70.1286 90.3251 70.133 87.2084C70.133 86.9199 70.1197 86.627 70.1595 86.3429C70.2699 85.4817 70.8575 84.9615 71.6747 84.9747C72.4875 84.9921 73.0839 85.5298 73.1016 86.4128C73.1413 88.2575 73.1148 90.1065 73.1148 91.9512C73.106 91.9512 73.1016 91.9512 73.0927 91.9512L73.0883 91.9643Z" fill="#DFF3FF"/>
<path d="M82.0869 51.0578C82.6302 50.1617 83.0941 49.4011 83.5579 48.6405C84.1145 47.7269 84.6534 46.8046 85.2321 45.9041C85.7446 45.1085 86.6104 44.8943 87.3349 45.3358C88.0284 45.7599 88.214 46.5685 87.7987 47.3772C87.706 47.5565 87.5955 47.7269 87.4895 47.9018C86.4249 49.6547 85.3823 51.425 84.2868 53.1561C83.9334 53.7112 83.8892 54.1177 84.2647 54.6991C85.4354 56.5219 86.5442 58.3841 87.6441 60.2506C87.8517 60.6091 88.0284 61.0593 88.0108 61.4571C87.9843 62.1084 87.5734 62.5718 86.8887 62.7204C86.1731 62.8778 85.6253 62.6068 85.2542 62.0079C84.3751 60.5829 83.5137 59.1447 82.6391 57.7153C82.4756 57.4486 82.3033 57.1907 82.078 56.841C81.0134 58.5896 80.0062 60.2375 79.0078 61.8899C78.6324 62.515 78.1243 62.8996 77.3601 62.7685C76.2557 62.5805 75.8007 61.4658 76.4236 60.4124C77.5721 58.4759 78.734 56.5438 79.9355 54.6379C80.258 54.1265 80.2668 53.7637 79.9399 53.2479C78.7384 51.342 77.5854 49.4055 76.4236 47.4734C76.0481 46.8483 75.9995 46.2145 76.4987 45.6287C76.9449 45.1042 77.5589 44.9555 78.1553 45.2309C78.5175 45.4014 78.84 45.7642 79.0609 46.1139C80.0636 47.7007 81.0222 49.3137 82.0824 51.0578H82.0869Z" fill="#DFF3FF"/>
<path d="M80.5452 99.7277V87.9296C79.644 87.9296 78.7782 87.9383 77.9123 87.9296C76.7947 87.9121 76.1409 87.3613 76.1365 86.4521C76.1321 85.5385 76.7726 84.9877 77.8991 84.9834C80.6998 84.9746 83.4961 84.9746 86.2968 84.9834C87.388 84.9834 88.0815 85.5866 88.0638 86.4696C88.0417 87.3482 87.3482 87.9165 86.2482 87.9296C85.3824 87.9427 84.5166 87.9296 83.611 87.9296V99.7277C84.4856 99.7277 85.3471 99.7233 86.2085 99.7277C87.357 99.7364 88.0771 100.322 88.0638 101.227C88.0506 102.11 87.3614 102.67 86.2526 102.674C83.4829 102.678 80.7131 102.678 77.9433 102.674C76.8035 102.674 76.163 102.154 76.1409 101.24C76.1188 100.292 76.7815 99.7364 77.9565 99.7233C78.7959 99.7146 79.6352 99.7233 80.5452 99.7233V99.7277Z" fill="#DFF3FF"/>
<path d="M74.5284 113.038C71.2064 113.038 67.8888 113.034 64.5668 113.038C63.8909 113.038 63.2857 112.92 62.9058 112.299C62.3581 111.412 62.8837 110.276 63.9219 110.105C64.1207 110.074 64.3283 110.079 64.5315 110.079C71.2594 110.079 77.9873 110.079 84.7196 110.079C85.8152 110.079 86.4115 110.498 86.5308 111.307C86.6766 112.321 85.9698 113.021 84.7549 113.025C81.5787 113.034 78.4025 113.025 75.2307 113.025C74.9966 113.025 74.7625 113.025 74.5328 113.025L74.5284 113.038Z" fill="#DFF3FF"/>
<defs>
<linearGradient id="paint0_linear_129_67" x1="136.205" y1="12.5" x2="-16.0057" y2="82.963" gradientUnits="userSpaceOnUse">
<stop stop-color="#099FCA"/>
<stop offset="1" stop-color="#0961AC"/>
</linearGradient>
</defs>
</svg>
