<svg width="150" height="150" viewBox="0 0 150 150" fill="none" xmlns="http://www.w3.org/2000/svg">
<circle cx="75" cy="75" r="75" fill="url(#paint0_linear_129_49)"/>
<path d="M87.9888 97.3585C92.6019 97.8946 94.7921 99.5696 95.1162 102.728C95.6191 107.65 94.2934 109.923 89.9712 111.411C89.9712 112.92 89.9795 114.466 89.9712 116.008C89.9587 117.617 89.406 118.173 87.7976 118.173C79.0286 118.178 70.2553 118.178 61.4863 118.173C59.8156 118.173 59.2878 117.629 59.2795 115.925C59.2712 114.416 59.2795 112.907 59.2795 111.428C55.0529 110.077 53.5983 107.841 54.1677 102.529C54.5043 99.4117 56.8482 97.7533 61.2619 97.3751C61.079 96.9636 60.9211 96.5895 60.7424 96.2238C58.3776 91.3401 56.0295 86.4522 53.6191 81.5893C53.112 80.5668 53.1661 79.7356 53.7271 78.763C59.1714 69.3281 64.5866 59.8724 70.0101 50.425C70.1639 50.1548 70.2678 49.7683 70.5005 49.6519C71.0491 49.3734 71.7182 48.9827 72.2377 49.095C72.699 49.1947 73.0897 49.8763 73.3889 50.3751C73.5469 50.637 73.443 51.0568 73.443 51.4059C73.443 59.6355 73.4305 67.8609 73.4596 76.0904C73.4596 77.142 73.1894 77.9151 72.325 78.5884C70.5837 79.9475 70.4507 82.3624 71.9177 83.9376C73.3723 85.5004 75.8493 85.5129 77.3121 83.9626C78.7917 82.3956 78.6836 79.9642 76.9589 78.6009C76.1028 77.9234 75.7869 77.1794 75.7911 76.1195C75.8202 67.8526 75.8077 59.5856 75.8077 51.3186C75.8077 51.2022 75.8118 51.0858 75.8077 50.9695C75.7661 50.0675 76.0612 49.3152 76.9672 49.0409C77.9314 48.75 78.5797 49.2446 79.0535 50.08C81.1813 53.8207 83.3341 57.549 85.4744 61.2814C88.8117 67.1003 92.1323 72.9275 95.5027 78.7256C96.097 79.7439 96.122 80.6042 95.5983 81.6599C93.2045 86.4855 90.873 91.3401 88.5249 96.1905C88.342 96.5646 88.18 96.947 87.9929 97.3543L87.9888 97.3585ZM79.1158 56.9214C79.0826 57.3536 79.0618 57.5323 79.0618 57.7069C79.0618 63.5674 79.0452 69.4278 79.0867 75.2883C79.0867 75.7538 79.386 76.3066 79.7101 76.6682C82.291 79.5568 82.1954 83.7755 79.4525 86.4356C76.7636 89.0458 72.4788 89.0458 69.7774 86.4356C67.0303 83.7838 66.943 79.5735 69.5114 76.664C69.873 76.2525 70.1431 75.6 70.1473 75.0555C70.193 69.3904 70.1764 63.7253 70.1764 58.056V56.8923C69.8855 57.2788 69.7649 57.4077 69.6818 57.5614C65.4511 64.9223 61.2161 72.2791 57.0269 79.6649C56.8192 80.0348 56.8649 80.7123 57.0602 81.1196C59.5288 86.2943 62.064 91.4398 64.5368 96.6145C64.8568 97.2837 65.2308 97.479 65.9456 97.4748C71.7266 97.4458 77.5116 97.4458 83.2926 97.4748C84.0032 97.4748 84.3814 97.2837 84.7014 96.6145C87.1742 91.4398 89.6844 86.2818 92.2195 81.1404C92.5354 80.5045 92.4814 80.0431 92.1364 79.4446C88.0054 72.2957 83.9035 65.126 79.7933 57.9688C79.6312 57.6861 79.4358 57.416 79.12 56.9255L79.1158 56.9214ZM74.7438 100.717C69.9727 100.717 65.2017 100.713 60.4348 100.717C58.9221 100.717 57.8955 101.349 57.5174 102.554C57.3719 103.024 57.3594 103.543 57.3553 104.042C57.322 107.334 58.0909 108.115 61.345 108.115C66.0745 108.115 70.8081 108.115 75.5376 108.115C79.8805 108.115 84.2235 108.123 88.5665 108.115C90.8772 108.107 91.8704 107.088 91.8871 104.765C91.8871 104.611 91.8871 104.453 91.8871 104.3C91.8871 101.627 90.9894 100.721 88.3545 100.717C83.8162 100.717 79.2779 100.717 74.7438 100.717ZM62.5585 114.819H86.6423V111.486H62.5585V114.819Z" fill="#DFF3FF"/>
<path d="M55.0403 38.3882C54.4377 38.3882 53.8351 38.3882 53.2283 38.3882C49.8911 38.3882 46.5538 38.4007 43.2166 38.3757C42.56 38.3716 42.2109 38.5461 41.9033 39.1904C40.7147 41.6842 38.1048 42.9269 35.5447 42.3243C32.8932 41.7008 31.0854 39.473 31.0688 36.8129C31.0521 34.1363 32.8309 31.8794 35.4616 31.231C38.0757 30.5867 40.6233 31.8378 41.9657 34.3441C42.1527 34.6932 42.668 35.0922 43.0338 35.0922C51.4537 35.1338 59.8778 35.1213 68.2978 35.1171C68.4474 35.1171 68.597 35.0714 68.9253 35.0132C68.9253 34.3316 68.9046 33.65 68.9295 32.9683C68.9794 31.6258 69.5363 31.0772 70.8828 31.0689C73.368 31.0522 75.8491 31.0522 78.3344 31.0689C79.735 31.0772 80.2711 31.63 80.3126 33.0598C80.3334 33.7081 80.3126 34.3524 80.3126 35.1255C80.8529 35.1255 81.2353 35.1255 81.6135 35.1255C89.6843 35.1255 97.7593 35.1171 105.83 35.1421C106.62 35.1421 107.052 34.9467 107.422 34.1861C108.594 31.7796 111.216 30.6117 113.751 31.231C116.382 31.871 118.173 34.1321 118.161 36.8005C118.148 39.4605 116.341 41.6966 113.689 42.3243C111.162 42.9228 108.552 41.7174 107.385 39.3026C107.044 38.596 106.67 38.3674 105.901 38.3757C102.331 38.4173 98.7609 38.3924 95.1909 38.3965C94.8585 38.3965 94.5218 38.4339 93.9442 38.4713C106.533 45.0924 113.319 55.317 114.57 69.3488C115.152 69.3488 115.725 69.3281 116.295 69.353C117.567 69.4112 118.144 69.9723 118.157 71.2358C118.182 73.4886 118.178 75.7371 118.157 77.9899C118.144 79.2617 117.579 79.8727 116.32 79.8935C114.03 79.9309 111.74 79.9309 109.45 79.8935C108.187 79.8727 107.659 79.2784 107.646 77.9691C107.626 75.7953 107.634 73.6216 107.646 71.4478C107.655 69.8808 108.166 69.3779 109.749 69.3488C110.173 69.3405 110.597 69.3488 111.021 69.3488C111.183 54.7476 97.9463 39.074 80.3002 38.5586C80.3002 39.2735 80.3334 39.9925 80.2919 40.7074C80.2254 41.9045 79.656 42.4656 78.4508 42.478C75.8907 42.4988 73.3265 42.4988 70.7664 42.478C69.557 42.4656 68.9918 41.9045 68.9253 40.7074C68.8879 40.0175 68.917 39.3234 68.917 38.6334C54.0512 38.5711 38.5412 51.9545 38.1173 69.353C38.6825 69.353 39.2518 69.3239 39.8171 69.3571C40.9807 69.4236 41.5501 69.9598 41.5626 71.0987C41.5916 73.4678 41.5792 75.8327 41.5626 78.2019C41.5542 79.2908 40.9101 79.8686 39.8794 79.8852C37.5147 79.9309 35.1458 79.9351 32.7769 79.8852C31.6007 79.8602 31.0688 79.2243 31.0563 77.9899C31.0355 75.7787 31.0397 73.5634 31.0563 71.3522C31.0646 69.9474 31.6257 69.3904 33.0345 69.3488C33.5665 69.3322 34.1026 69.3488 34.6429 69.3488C35.8897 55.317 42.6888 45.0924 55.0237 38.3924L55.0403 38.3882ZM76.9588 39.1821V34.4023H72.2792V39.1821H76.9588ZM112.442 39.207C113.768 39.2195 114.89 38.1222 114.903 36.7922C114.915 35.4663 113.81 34.3399 112.488 34.3316C111.162 34.3233 110.04 35.4206 110.028 36.7506C110.011 38.0723 111.112 39.1945 112.442 39.207ZM36.7666 39.2153C38.0882 39.2153 39.2061 38.1014 39.2144 36.7755C39.2228 35.458 38.1048 34.3358 36.7791 34.3316C35.4575 34.3316 34.3395 35.4413 34.3354 36.7672C34.3354 38.0931 35.4491 39.2153 36.7666 39.2153ZM34.4143 72.6614V76.5476H38.2336V72.6614H34.4143ZM110.954 76.5559H114.832V72.6905H110.954V76.5559Z" fill="#DFF3FF"/>
<defs>
<linearGradient id="paint0_linear_129_49" x1="136.205" y1="12.5" x2="-16.0057" y2="82.963" gradientUnits="userSpaceOnUse">
<stop stop-color="#099FCA"/>
<stop offset="1" stop-color="#0961AC"/>
</linearGradient>
</defs>
</svg>
