<svg width="198" height="198" viewBox="0 0 198 198" fill="none" xmlns="http://www.w3.org/2000/svg">
<circle cx="99" cy="99" r="99" fill="url(#paint0_linear_129_69)"/>
<path d="M108.801 138.398H107.311C87.3851 138.398 67.4591 138.398 47.5331 138.398C43.2121 138.398 41.0057 136.203 41.0057 131.899C41 106.093 41 80.2816 41 54.4701C41 50.2178 43.2064 48 47.43 48C80.8119 48 114.194 48 147.576 48C151.799 48 154 50.2178 154 54.4815C154 86.5683 154 118.655 154 150.742C154 157.109 150.109 161 143.748 161C135.432 161 127.117 161 118.801 161C112.767 161 108.813 157.017 108.807 150.954C108.807 147.189 108.807 143.424 108.807 139.658V138.403L108.801 138.398ZM108.801 134.633V133.102C108.801 121.882 108.801 110.666 108.801 99.4454C108.801 93.3994 112.778 89.4395 118.83 89.4337C126.36 89.4337 133.896 89.4452 141.427 89.428C144.441 89.4223 147.484 89.2102 150.178 91.3593V66.9002H44.7651V68.1151C44.7651 89.3764 44.7651 110.638 44.7651 131.899C44.7651 134.117 45.2924 134.638 47.5618 134.638C67.5279 134.638 87.494 134.638 107.466 134.638H108.801V134.633ZM150.172 145.882V104.575H112.652V145.882H150.172ZM44.7709 62.9918H150.235C150.235 60.1837 150.235 57.4444 150.235 54.705C150.235 52.2236 149.771 51.7651 147.289 51.7651C114.108 51.7651 80.9265 51.7651 47.7452 51.7651C47.3898 51.7651 47.0403 51.7479 46.685 51.7709C45.5101 51.8511 44.7938 52.5331 44.7766 53.7251C44.7479 56.7796 44.7651 59.8341 44.7651 62.9861L44.7709 62.9918ZM150.229 100.712C150.229 100.03 150.241 99.4512 150.229 98.8724C150.155 95.6516 147.753 93.2218 144.521 93.216C135.77 93.1931 127.025 93.1874 118.274 93.216C114.36 93.2332 111.718 96.8551 112.755 100.712H150.229ZM150.189 149.785H112.572C112.572 150.49 112.555 151.12 112.572 151.739C112.681 154.753 115.065 157.2 118.097 157.212C126.962 157.252 135.828 157.246 144.693 157.212C146.768 157.206 148.361 156.186 149.444 154.421C150.315 153.011 150.304 151.447 150.183 149.785H150.189Z" fill="#DFF3FF"/>
<path d="M76.9035 78.1326C85.4195 78.1326 93.9297 78.1326 102.446 78.1326C104.446 78.1326 105.036 78.7171 105.036 80.7229C105.036 94.0642 105.036 107.4 105.036 120.741C105.036 122.741 104.446 123.331 102.446 123.331C85.3392 123.331 68.2328 123.331 51.1263 123.331C49.1263 123.331 48.5417 122.741 48.5417 120.741C48.5417 107.4 48.5417 94.0642 48.5417 80.7229C48.5417 78.7171 49.1263 78.1383 51.1321 78.1383C59.7225 78.1383 68.3188 78.1383 76.9092 78.1383L76.9035 78.1326ZM101.214 81.9779H52.3757V114.678C52.7424 114.128 52.9831 113.784 53.2009 113.434C57.8543 105.99 62.502 98.5457 67.1554 91.1071C68.5021 88.9523 69.9864 88.9409 71.3217 91.0785C74.9206 96.8265 78.5081 102.574 82.1071 108.322C82.3248 108.672 82.5598 109.016 82.8693 109.474C84.577 107.039 86.2103 104.701 87.8493 102.362C89.4024 100.145 90.5428 100.162 92.1131 102.408C94.8753 106.357 97.6376 110.305 100.406 114.254C100.618 114.558 100.858 114.838 101.208 115.297V81.9779H101.214ZM84.6802 119.543C79.4881 111.245 74.4163 103.136 69.2471 94.878C64.0493 103.193 58.9775 111.308 53.8255 119.543H84.6802ZM89.9697 105.898C88.3536 108.208 86.8579 110.311 85.4195 112.449C85.2418 112.712 85.2418 113.274 85.4023 113.555C86.4911 115.406 87.643 117.228 88.8007 119.039C88.9439 119.268 89.2534 119.538 89.4883 119.543C92.7549 119.578 96.0215 119.566 99.523 119.566C96.2794 114.936 93.179 110.5 89.9583 105.898H89.9697Z" fill="#DFF3FF"/>
<path d="M127.764 140.277C126.28 140.272 125.501 139.074 125.919 137.59C127.3 132.69 128.704 127.801 130.102 122.907C131.146 119.257 132.189 115.606 133.249 111.956C133.661 110.54 134.601 109.898 135.696 110.237C136.825 110.586 137.249 111.578 136.836 113.016C134.412 121.526 131.971 130.025 129.552 138.535C129.266 139.555 128.721 140.197 127.764 140.277Z" fill="#DFF3FF"/>
<path d="M143.834 125.217C141.914 123.308 140.109 121.515 138.309 119.721C138.057 119.475 137.793 119.234 137.575 118.959C136.888 118.111 136.911 117.136 137.616 116.403C138.315 115.675 139.386 115.537 140.154 116.282C142.768 118.821 145.352 121.4 147.885 124.019C148.647 124.81 148.521 125.796 147.765 126.564C145.295 129.079 142.802 131.578 140.28 134.048C139.432 134.879 138.28 134.822 137.553 134.048C136.825 133.274 136.853 132.191 137.713 131.32C139.69 129.314 141.707 127.337 143.839 125.217H143.834Z" fill="#DFF3FF"/>
<path d="M118.996 125.268C120.882 127.131 122.658 128.89 124.441 130.65C124.693 130.896 124.956 131.137 125.18 131.406C125.919 132.289 125.902 133.309 125.157 134.048C124.412 134.787 123.34 134.845 122.521 134.048C119.999 131.584 117.512 129.091 115.042 126.575C114.2 125.715 114.205 124.713 115.048 123.853C117.483 121.366 119.953 118.902 122.435 116.46C123.306 115.601 124.389 115.601 125.163 116.346C125.965 117.119 125.948 118.225 125.042 119.154C123.375 120.867 121.673 122.535 119.982 124.231C119.684 124.529 119.397 124.844 118.985 125.274L118.996 125.268Z" fill="#DFF3FF"/>
<path d="M111.627 59.3011C100.956 59.3011 90.285 59.3011 79.6085 59.3011C79.2188 59.3011 78.8119 59.3412 78.4337 59.2725C77.4193 59.0891 76.8062 58.4644 76.8062 57.4214C76.8062 56.3784 77.4193 55.7537 78.428 55.5646C78.7718 55.5016 79.1329 55.536 79.4824 55.536C100.904 55.536 122.326 55.536 143.748 55.536C144.103 55.536 144.464 55.5016 144.802 55.5646C145.817 55.7537 146.43 56.3784 146.43 57.4157C146.43 58.4587 145.817 59.0833 144.802 59.2725C144.424 59.3412 144.017 59.3011 143.627 59.3011C132.957 59.3011 122.286 59.3011 111.609 59.3011H111.627Z" fill="#DFF3FF"/>
<path d="M51.3613 59.3011C51.241 59.3011 51.1263 59.3011 51.006 59.3011C49.4186 59.2896 48.5417 58.6249 48.5417 57.4157C48.5417 56.2065 49.4128 55.5417 51.0003 55.5302C51.39 55.5302 51.7854 55.5188 52.1751 55.5302C53.3785 55.5875 54.1694 56.3383 54.1694 57.4042C54.1694 58.4701 53.3785 59.2209 52.1808 59.2839C51.9057 59.3011 51.6307 59.2839 51.3556 59.2839L51.3613 59.3011Z" fill="#DFF3FF"/>
<path d="M58.9374 55.536C59.1724 55.536 59.4073 55.5302 59.6423 55.536C60.9088 55.5876 61.7341 56.3555 61.7054 57.4615C61.6767 58.5217 60.8802 59.2495 59.6652 59.2954C59.1552 59.3126 58.6451 59.3126 58.1351 59.2954C56.8629 59.2495 56.0434 58.4759 56.072 57.3698C56.1007 56.3039 56.8915 55.5876 58.1065 55.536C58.3815 55.5245 58.6566 55.536 58.9317 55.536H58.9374Z" fill="#DFF3FF"/>
<path d="M66.4677 55.536C66.7027 55.536 66.9376 55.5302 67.1726 55.536C68.4391 55.5876 69.2643 56.3555 69.2357 57.4615C69.207 58.5217 68.4104 59.2495 67.1955 59.2954C66.6855 59.3126 66.1754 59.3126 65.6654 59.2954C64.3931 59.2495 63.5736 58.4759 63.6023 57.3698C63.6309 56.3039 64.4218 55.5876 65.6367 55.536C65.9118 55.5245 66.1869 55.536 66.462 55.536H66.4677Z" fill="#DFF3FF"/>
<path d="M131.318 98.8437C130.693 98.8437 130.057 98.8838 129.438 98.8322C128.389 98.752 127.667 97.984 127.644 97.0041C127.621 95.9782 128.372 95.1473 129.484 95.1072C130.773 95.0556 132.074 95.0556 133.363 95.1072C134.412 95.153 135.14 95.9496 135.157 96.9296C135.18 97.9496 134.424 98.7577 133.318 98.8322C132.653 98.878 131.982 98.8379 131.318 98.8379V98.8437Z" fill="#DFF3FF"/>
<path d="M131.421 151.59C132.051 151.59 132.676 151.556 133.3 151.596C134.412 151.67 135.169 152.461 135.151 153.487C135.14 154.467 134.418 155.275 133.369 155.321C132.04 155.378 130.698 155.384 129.369 155.321C128.332 155.269 127.621 154.421 127.638 153.441C127.65 152.455 128.372 151.71 129.415 151.596C129.495 151.584 129.57 151.59 129.65 151.59C130.24 151.59 130.825 151.59 131.415 151.59H131.421Z" fill="#DFF3FF"/>
<path d="M84.3191 96.964C81.2531 96.9812 78.6857 94.4482 78.6685 91.3879C78.6514 88.2475 81.1844 85.6801 84.3019 85.6801C87.3851 85.6801 89.9238 88.1844 89.9525 91.2561C89.9811 94.3851 87.4481 96.9525 84.3134 96.9697L84.3191 96.964ZM86.1931 91.3249C86.1931 90.3105 85.3679 89.4624 84.3592 89.4395C83.299 89.4223 82.4165 90.3048 82.4451 91.365C82.4738 92.3794 83.3277 93.2046 84.342 93.1874C85.3564 93.1759 86.1931 92.3335 86.1988 91.3192L86.1931 91.3249Z" fill="#DFF3FF"/>
<defs>
<linearGradient id="paint0_linear_129_69" x1="179.791" y1="16.5" x2="-21.1275" y2="109.511" gradientUnits="userSpaceOnUse">
<stop stop-color="#099FCA"/>
<stop offset="1" stop-color="#0961AC"/>
</linearGradient>
</defs>
</svg>
