<svg width="50" height="50" viewBox="0 0 50 50" fill="none" xmlns="http://www.w3.org/2000/svg">
<circle cx="25" cy="25" r="25" fill="#DFF3FF"/>
<path d="M24.3263 31.6793H16.895L15.3768 36.3738C15.3368 36.5536 15.1771 36.6734 14.9973 36.6535H11.2417C11.0219 36.6535 10.962 36.5336 11.0219 36.2939L17.4543 17.7756C17.5142 17.5759 17.5742 17.3561 17.654 17.1164C17.7339 16.6969 17.7739 16.2575 17.7739 15.8179C17.7539 15.718 17.8338 15.6182 17.9337 15.5981H17.9937H23.1076C23.2675 15.5981 23.3473 15.6581 23.3673 15.758L30.6588 36.3338C30.7187 36.5536 30.6588 36.6534 30.459 36.6534H26.2839C26.1441 36.6733 26.0042 36.5735 25.9643 36.4336L24.3263 31.6793ZM18.0536 27.624H23.1277L20.5706 19.2938L18.0536 27.624Z" fill="#FF9A00"/>
<path d="M35.0137 19.0142C34.3545 19.0342 33.7152 18.7745 33.2358 18.315C32.7763 17.8156 32.5365 17.1564 32.5566 16.4772C32.5366 15.798 32.7963 15.1587 33.2757 14.6992C33.7552 14.2397 34.3945 14 35.0537 14C35.8328 14 36.4321 14.2397 36.8715 14.6992C37.311 15.1786 37.5507 15.8179 37.5307 16.4772C37.5507 17.1563 37.311 17.8155 36.8315 18.315C36.3721 18.7945 35.6929 19.0541 35.0137 19.0142Z" fill="#FF9A00"/>
<path d="M32.7766 36.3539V20.972C32.7766 20.7722 32.8565 20.6923 33.0363 20.6923H36.9916C37.1714 20.6923 37.2513 20.7922 37.2513 20.972V36.3539C37.2513 36.5737 37.1714 36.6735 36.9916 36.6735H33.0763C32.8764 36.6735 32.7766 36.5537 32.7766 36.3539Z" fill="#FF9A00"/>
</svg>
