<svg width="50" height="50" viewBox="0 0 50 50" fill="none" xmlns="http://www.w3.org/2000/svg">
<circle cx="25" cy="25" r="25" fill="#DFF3FF"/>
<path d="M17.2408 13.4465V38.1701C17.2408 38.4352 17.1203 38.5556 16.9034 38.5556H12.1804C11.9635 38.5556 11.8672 38.4351 11.8672 38.1701V13.4465C11.8672 13.2296 11.9877 13.1333 12.2046 13.1333H16.9035C17.0481 13.1092 17.1927 13.2056 17.2167 13.3742C17.2408 13.3983 17.2408 13.4225 17.2408 13.4465Z" fill="#FF3068"/>
<path d="M31.1203 38.9415C29.3371 38.9655 27.554 38.6041 25.9394 37.8571C24.4213 37.1582 23.1683 36.0016 22.3008 34.5799C21.4093 33.11 20.9755 31.2786 20.9755 29.0858C20.9515 27.3026 21.4093 25.5435 22.3008 24.0014C23.2165 22.435 24.5418 21.1338 26.1322 20.2663C27.819 19.3265 29.8432 18.8687 32.2288 18.8687C32.3493 18.8687 32.5179 18.8687 32.7348 18.8927C32.9517 18.9168 33.1926 18.9168 33.4818 18.941V11.3263C33.4818 11.1577 33.5541 11.0612 33.7227 11.0612H38.6145C38.735 11.0372 38.8313 11.1335 38.8554 11.2299V11.2781V34.2185C38.8554 34.6522 38.8794 35.1342 38.9036 35.6643C38.9518 36.1703 38.9759 36.6523 39 37.0619C39 37.2305 38.9277 37.3751 38.759 37.4474C37.506 37.9775 36.1806 38.3631 34.8313 38.6041C33.6264 38.8209 32.3734 38.9415 31.1203 38.9415ZM33.4818 34.122V23.5193C33.2649 23.471 33.048 23.4229 32.8312 23.3987C32.5661 23.3747 32.3011 23.3505 32.036 23.3505C31.0962 23.3505 30.1564 23.5433 29.3129 23.9771C28.4937 24.3868 27.7948 24.9891 27.2647 25.7603C26.7346 26.5314 26.4695 27.5676 26.4695 28.8206C26.4455 29.664 26.5901 30.5073 26.8792 31.3025C27.1202 31.9532 27.4816 32.5315 27.9636 33.0135C28.4214 33.4472 28.9757 33.7846 29.6022 33.9773C30.2528 34.1942 30.9275 34.2905 31.6023 34.2905C31.9638 34.2905 32.3012 34.2665 32.6144 34.2423C32.9276 34.2666 33.2168 34.2184 33.4818 34.122Z" fill="#FF3068"/>
</svg>
