<svg width="76" height="76" viewBox="0 0 76 76" fill="none" xmlns="http://www.w3.org/2000/svg">
<circle cx="38.2585" cy="38.0002" r="37.7414" fill="url(#paint0_linear_85_904)"/>
<path d="M46.6508 19.7012H29.8664C24.4038 19.7012 19.9597 24.1452 19.9597 29.6078V46.3925C19.9597 51.8548 24.4038 56.2989 29.8664 56.2989H46.651C52.1134 56.2989 56.5574 51.8548 56.5574 46.3925V29.6078C56.5574 24.1452 52.1134 19.7012 46.6508 19.7012ZM54.4119 46.3925C54.4119 50.6718 50.9303 54.1534 46.6508 54.1534H29.8664C25.5868 54.1534 22.1052 50.6718 22.1052 46.3925V29.6078C22.1052 25.3283 25.5868 21.8467 29.8664 21.8467H46.651C50.9303 21.8467 54.4119 25.3283 54.4119 29.6078V46.3925Z" fill="#DFF3FF"/>
<path d="M38.2589 27.9932C32.7409 27.9932 28.252 32.4822 28.252 38.0001C28.252 43.518 32.7409 48.007 38.2589 48.007C43.7768 48.007 48.2658 43.518 48.2658 38.0001C48.2658 32.4822 43.7768 27.9932 38.2589 27.9932ZM38.2589 45.8615C33.9243 45.8615 30.3975 42.3349 30.3975 38.0001C30.3975 33.6655 33.9243 30.1387 38.2589 30.1387C42.5937 30.1387 46.1202 33.6655 46.1202 38.0001C46.1202 42.3349 42.5937 45.8615 38.2589 45.8615Z" fill="#DFF3FF"/>
<path d="M48.505 24.4395C46.8744 24.4395 45.5481 25.766 45.5481 27.3964C45.5481 29.027 46.8744 30.3536 48.505 30.3536C50.1357 30.3536 51.4622 29.027 51.4622 27.3964C51.4622 25.7657 50.1357 24.4395 48.505 24.4395ZM48.505 28.2078C48.0577 28.2078 47.6936 27.8437 47.6936 27.3964C47.6936 26.9488 48.0577 26.585 48.505 26.585C48.9526 26.585 49.3167 26.9488 49.3167 27.3964C49.3167 27.8437 48.9526 28.2078 48.505 28.2078Z" fill="#DFF3FF"/>
<defs>
<linearGradient id="paint0_linear_85_904" x1="69.0581" y1="6.54902" x2="-7.53728" y2="42.0073" gradientUnits="userSpaceOnUse">
<stop stop-color="#099FCA"/>
<stop offset="1" stop-color="#0961AC"/>
</linearGradient>
</defs>
</svg>
