<svg width="76" height="76" viewBox="0 0 76 76" fill="none" xmlns="http://www.w3.org/2000/svg">
<circle cx="37.7414" cy="38.0002" r="37.7414" fill="url(#paint0_linear_85_905)"/>
<path d="M22.0329 14.355C20.3975 14.355 18.9107 14.9497 17.7956 16.0648C16.6062 17.2542 16.0115 18.7409 16.0115 20.302C16.0115 21.9375 16.6805 23.4243 17.7956 24.5394C18.9107 25.6545 20.4718 26.3235 21.9586 26.2492C21.9586 26.2492 22.0329 26.2492 22.1073 26.2492C23.5941 26.2492 25.0066 25.6545 26.1216 24.5394C27.2367 23.4243 27.9058 21.9375 27.9058 20.302C27.9801 18.7409 27.311 17.2541 26.196 16.139C25.0809 14.9496 23.5941 14.355 22.0329 14.355ZM25.0809 23.4987C24.2631 24.3164 23.148 24.8368 21.9586 24.7625C20.8435 24.7625 19.6541 24.3164 18.8364 23.4987C17.9443 22.6809 17.4983 21.4915 17.4983 20.3021C17.4983 19.1127 17.9443 17.9977 18.8364 17.1056C19.6541 16.2878 20.7692 15.8418 22.0329 15.8418C23.148 15.8418 24.2631 16.2878 25.0809 17.1056C25.9729 17.9977 26.419 19.1127 26.419 20.3021C26.419 21.4915 25.9729 22.6809 25.0809 23.4987Z" fill="#DFF3FF"/>
<path d="M24.9322 27.7363H18.9107C17.7213 27.7363 16.7549 28.7027 16.7549 29.9665V55.9852C16.7549 57.1746 17.7957 58.2154 18.9851 58.2154H24.9322C26.1216 58.2154 27.1624 57.1746 27.1624 56.0595V29.9665C27.1624 28.777 26.1216 27.7363 24.9322 27.7363ZM25.6756 56.0595C25.6756 56.4312 25.3038 56.7286 24.9322 56.7286H18.9851C18.6133 56.7286 18.2417 56.3568 18.2417 55.9852V29.9665C18.2417 29.5948 18.539 29.2231 18.9107 29.2231H24.9322C25.3039 29.2231 25.6756 29.5949 25.6756 29.9665V56.0595Z" fill="#DFF3FF"/>
<path d="M50.2074 26.9927H48.6463C45.7471 26.9927 42.9966 28.2565 41.2124 30.2636V29.2228C41.2124 28.4795 40.4691 27.736 39.7256 27.736H32.2917C31.6227 27.736 30.8049 28.3308 30.8049 29.1485V56.8769C30.8049 57.6947 31.6227 58.215 32.2917 58.215H40.4691C41.1381 58.215 41.9559 57.6947 41.9559 56.8769V40.8197C41.9559 38.3665 43.74 36.4336 46.0445 36.4336C47.2339 36.4336 48.349 36.8797 49.1667 37.6974C49.9101 38.3665 50.2075 39.4072 50.2075 40.7453V56.7283C50.2075 57.4716 50.9509 58.2151 51.6943 58.2151H59.1282C59.8716 58.2151 60.615 57.4717 60.615 56.7283V37.5488C60.6149 31.6017 56.0803 26.9927 50.2074 26.9927ZM59.1281 56.654L59.0538 56.7283H51.7686L51.6942 40.7454C51.6942 38.9613 51.2482 37.6232 50.2818 36.6568C49.1667 35.5417 47.6799 34.947 46.1188 34.947C42.9966 35.0213 40.5434 37.5489 40.5434 40.8197V56.7283H32.3661V29.2228H39.7256L39.7999 29.2972V33.9805L41.8071 31.9734L41.8814 31.8991C43.3682 29.8176 45.97 28.4795 48.7206 28.4795H50.2817C55.2624 28.4795 59.1281 32.4938 59.1281 37.5489V56.654Z" fill="#DFF3FF"/>
<defs>
<linearGradient id="paint0_linear_85_905" x1="68.541" y1="6.54902" x2="-8.05437" y2="42.0073" gradientUnits="userSpaceOnUse">
<stop stop-color="#099FCA"/>
<stop offset="1" stop-color="#0961AC"/>
</linearGradient>
</defs>
</svg>
