<svg width="136" height="80" viewBox="0 0 136 80" fill="none" xmlns="http://www.w3.org/2000/svg">
<g clip-path="url(#clip0_20_24)">
<path d="M14.4387 79.5957H20.0101L16.0752 61.9918H10.574L0 79.5957H5.9024L7.5616 76.5281H13.8833L14.4364 79.5957H14.4387ZM9.8736 72.2545L12.3035 67.7593L13.1127 72.2545H9.87133H9.8736Z" fill="url(#paint0_linear_20_24)"/>
<path d="M24.4597 75.7012L26.5246 64.7008H21.7918L18.9834 79.5957H24.7883L27.1275 75.7012H24.4597Z" fill="url(#paint1_linear_20_24)"/>
<path d="M39.2201 64.7008H34.5667L27.9593 75.7012L25.6201 79.5957H30.6159L32.0189 76.9986H37.3683L37.8375 79.5957H42.5521L39.2224 64.7008H39.2201ZM33.9751 73.3828L36.0332 69.582L36.7177 73.3828H33.9751Z" fill="url(#paint2_linear_20_24)"/>
<path d="M56.8911 64.7008L54.0827 79.5957H50.1908L46.1607 72.6679L44.8551 79.5957H40.2424L43.0508 64.7008H46.9427L50.9751 71.6309L52.2784 64.7008H56.8911Z" fill="url(#paint3_linear_20_24)"/>
<path d="M67.7258 80C66.0032 80 64.5638 79.6528 63.4101 78.9561C62.2564 78.2618 61.4381 77.2887 60.9553 76.0393C60.4725 74.7898 60.3909 73.3348 60.706 71.6765L62.5306 61.994H68.1248L66.3228 71.576C66.2117 72.1973 66.1732 72.7318 66.2049 73.1864C66.2366 73.6386 66.3432 74.0155 66.5245 74.317C66.7058 74.6185 66.9552 74.8424 67.2702 74.984C67.5853 75.1279 67.9661 75.1987 68.4081 75.1987C68.9453 75.1987 69.4077 75.0822 69.7953 74.8469C70.1829 74.6117 70.507 74.2279 70.7677 73.6912C71.0284 73.1544 71.2369 72.4509 71.3956 71.5783L73.1976 61.9963H78.6988L76.8265 71.9301C76.3369 74.5614 75.3328 76.5669 73.8164 77.9397C72.3 79.3147 70.269 80.0023 67.7236 80.0023L67.7258 80Z" fill="url(#paint4_linear_20_24)"/>
<path d="M88.357 77.09L87.3732 75.265C87.5228 75.2033 87.6702 75.1371 87.8152 75.0663C88.196 74.8812 88.5428 74.6665 88.8624 74.4267L90.3154 66.7245C90.1204 66.4573 89.8938 66.2129 89.6331 65.9936C88.6154 65.1348 87.1783 64.7054 85.3196 64.7054H79.0206L76.2122 79.6003H80.945L81.6522 75.8543H82.8036L84.7983 79.6003H89.7124L88.6494 77.6291L88.3592 77.0923L88.357 77.09ZM85.816 71.5441C85.4556 71.8913 84.9479 72.0649 84.2928 72.0649H82.3548L83.0122 68.5747H84.5966C85.1451 68.5747 85.5758 68.6935 85.8908 68.9265C86.2059 69.1594 86.3623 69.5477 86.3623 70.0845C86.3623 70.7104 86.181 71.1946 85.8183 71.5441H85.816Z" fill="url(#paint5_linear_20_24)"/>
<path d="M102.086 72.3093C101.889 72.1631 101.671 72.0375 101.438 71.9232C102.165 71.5989 102.75 71.1558 103.19 70.5939C103.691 69.9566 103.943 69.1754 103.943 68.2526C103.943 67.1197 103.523 66.2426 102.68 65.6258C101.837 65.0091 100.579 64.6985 98.9082 64.6985H91.4668L90.9953 67.1996L89.7078 74.0315L89.0324 77.6222L88.6606 79.5934H96.7662C97.9698 79.5934 99.0669 79.4267 100.057 79.0932C101.046 78.7597 101.839 78.2412 102.433 77.54C103.029 76.8387 103.326 75.9411 103.326 74.847C103.326 73.7528 102.916 72.9077 102.091 72.3047L102.086 72.3093ZM98.1761 75.7446C97.8746 75.973 97.4916 76.085 97.0224 76.085H93.9714L94.4134 73.7437H97.4644C97.7726 73.7437 98.0424 73.8259 98.2758 73.9904C98.5093 74.1526 98.6272 74.3993 98.6272 74.7236C98.6272 75.1782 98.4753 75.5185 98.1761 75.7446ZM98.8493 69.8195C98.7428 70.0114 98.5705 70.1599 98.337 70.2672C98.1036 70.3746 97.8044 70.4248 97.444 70.4248H95.0413L95.4606 68.2115H97.7658C98.1534 68.2115 98.4594 68.2869 98.6793 68.4353C98.8992 68.5838 99.0102 68.8145 99.0102 69.1252C99.0102 69.397 98.9558 69.6254 98.8516 69.8173L98.8493 69.8195Z" fill="url(#paint6_linear_20_24)"/>
<path d="M101.669 79.5957L104.477 64.7008H109.212L106.404 79.5957H101.669Z" fill="url(#paint7_linear_20_24)"/>
<path d="M123.803 64.7008L120.995 79.5957H117.105L113.07 72.6679L111.767 79.5957H107.152L109.96 64.7008H113.855L117.885 71.6309L119.188 64.7008H123.803Z" fill="url(#paint8_linear_20_24)"/>
<path d="M131.285 79.5957H136L132.67 64.7008H128.017L119.07 79.5957H124.066L125.469 76.9986H130.818L131.285 79.5957ZM127.425 73.3828L129.481 69.5797L130.166 73.3828H127.423H127.425Z" fill="url(#paint9_linear_20_24)"/>
<path d="M103.682 53.5518H88.6493C88.2935 53.5518 87.9603 53.376 87.7585 53.0813L86.0381 50.5733C81.6793 54.9612 75.6613 57.677 69.0155 57.677C62.3696 57.677 56.3221 54.9497 51.9633 50.5436L50.2225 53.079C50.0185 53.3737 49.6853 53.5496 49.3317 53.5496H34.2992C32.5516 53.5496 31.5203 51.5715 32.5153 50.1211L64.668 3.29603C66.0847 1.23116 68.4193 0 70.9127 0H82.5339C84.2815 0 85.3128 1.97807 84.3177 3.42851L60.3795 38.2892C62.0727 41.3317 65.3049 43.3874 69.0155 43.3874C72.726 43.3874 75.9288 41.3499 77.6288 38.328L71.0509 28.8488L80.9223 14.4746L105.468 50.1233C106.463 51.5738 105.434 53.5518 103.684 53.5518H103.682Z" fill="url(#paint10_linear_20_24)"/>
</g>
<defs>
<linearGradient id="paint0_linear_20_24" x1="10.0051" y1="81.8022" x2="10.0051" y2="62.2202" gradientUnits="userSpaceOnUse">
<stop stop-color="#005CC0"/>
<stop offset="0.98" stop-color="#00BFD9"/>
</linearGradient>
<linearGradient id="paint1_linear_20_24" x1="23.0543" y1="81.8022" x2="23.0543" y2="62.2202" gradientUnits="userSpaceOnUse">
<stop stop-color="#005CC0"/>
<stop offset="0.98" stop-color="#00BFD9"/>
</linearGradient>
<linearGradient id="paint2_linear_20_24" x1="34.0861" y1="81.8022" x2="34.0861" y2="62.2202" gradientUnits="userSpaceOnUse">
<stop stop-color="#005CC0"/>
<stop offset="0.98" stop-color="#00BFD9"/>
</linearGradient>
<linearGradient id="paint3_linear_20_24" x1="48.5679" y1="81.8022" x2="48.5679" y2="62.2202" gradientUnits="userSpaceOnUse">
<stop stop-color="#005CC0"/>
<stop offset="0.98" stop-color="#00BFD9"/>
</linearGradient>
<linearGradient id="paint4_linear_20_24" x1="69.6117" y1="81.8022" x2="69.6117" y2="62.2202" gradientUnits="userSpaceOnUse">
<stop stop-color="#005CC0"/>
<stop offset="0.98" stop-color="#00BFD9"/>
</linearGradient>
<linearGradient id="paint5_linear_20_24" x1="83.2592" y1="81.8022" x2="83.2592" y2="62.2202" gradientUnits="userSpaceOnUse">
<stop stop-color="#005CC0"/>
<stop offset="0.98" stop-color="#00BFD9"/>
</linearGradient>
<linearGradient id="paint6_linear_20_24" x1="96.2993" y1="81.8022" x2="96.2993" y2="62.2202" gradientUnits="userSpaceOnUse">
<stop stop-color="#005CC0"/>
<stop offset="1" stop-color="#00BFD9"/>
</linearGradient>
<linearGradient id="paint7_linear_20_24" x1="105.438" y1="81.8022" x2="105.438" y2="62.2202" gradientUnits="userSpaceOnUse">
<stop stop-color="#005CC0"/>
<stop offset="0.98" stop-color="#00BFD9"/>
</linearGradient>
<linearGradient id="paint8_linear_20_24" x1="115.478" y1="81.8022" x2="115.478" y2="62.2202" gradientUnits="userSpaceOnUse">
<stop stop-color="#005CC0"/>
<stop offset="0.98" stop-color="#00BFD9"/>
</linearGradient>
<linearGradient id="paint9_linear_20_24" x1="127.534" y1="81.8022" x2="127.534" y2="62.2202" gradientUnits="userSpaceOnUse">
<stop stop-color="#005CC0"/>
<stop offset="0.98" stop-color="#00BFD9"/>
</linearGradient>
<linearGradient id="paint10_linear_20_24" x1="101.132" y1="-2.4783" x2="56.5231" y2="71.1088" gradientUnits="userSpaceOnUse">
<stop stop-color="#005CC0"/>
<stop offset="0.98" stop-color="#00BFD9"/>
</linearGradient>
<clipPath id="clip0_20_24">
<rect width="136" height="80" fill="white"/>
</clipPath>
</defs>
</svg>
