<svg width="200" height="143" viewBox="0 0 200 143" fill="none" xmlns="http://www.w3.org/2000/svg">
<g clip-path="url(#clip0_76_526)">
<path d="M21.2314 114.734H29.4254L23.6382 89.3599H15.5498L0 114.734H8.68087L11.1198 110.31H20.4184L21.2314 114.734ZM14.5209 104.15L18.0943 97.6711L19.2862 104.15H14.5209Z" fill="white"/>
<path d="M35.9681 109.119L39.0064 93.2612H32.0457L27.9165 114.731H36.4527L39.8929 109.119H35.9681Z" fill="white"/>
<path d="M57.6772 93.2612H50.8336L41.117 109.119L37.6768 114.731H45.0211L47.0856 110.988H54.9535L55.6425 114.731H62.5757L57.6772 93.2612ZM49.9632 105.776L52.99 100.298L53.9982 105.776H49.9632Z" fill="white"/>
<path d="M83.6625 93.2612L79.5333 114.731H73.8104L67.883 104.744L65.9631 114.731H59.1792L63.3107 93.2612H69.0313L74.9632 103.249L76.8808 93.2612H83.6625Z" fill="white"/>
<path d="M99.5958 115.314C97.0627 115.314 94.9476 114.813 93.2505 113.81C91.5534 112.808 90.35 111.406 89.6427 109.605C88.933 107.804 88.8113 105.708 89.2775 103.315L91.9621 89.3599H100.191L97.5404 103.17C97.3774 104.063 97.3199 104.837 97.3659 105.49C97.4118 106.143 97.568 106.686 97.8367 107.121C98.1031 107.557 98.4705 107.876 98.9344 108.081C99.3983 108.287 99.9564 108.389 100.609 108.389C101.399 108.389 102.078 108.221 102.648 107.881C103.217 107.543 103.693 106.987 104.076 106.214C104.46 105.44 104.768 104.426 105 103.17L107.65 89.3599H115.738L112.985 103.678C112.263 107.473 110.789 110.36 108.557 112.341C106.325 114.323 103.339 115.312 99.5958 115.312V115.314Z" fill="white"/>
<path d="M129.935 111.118L128.486 108.486C128.706 108.398 128.925 108.303 129.136 108.198C129.694 107.931 130.206 107.622 130.675 107.275L132.813 96.1714C132.528 95.7857 132.193 95.4341 131.807 95.1166C130.309 93.8781 128.197 93.2588 125.464 93.2588H116.202L112.073 114.729H119.034L120.072 109.33H121.766L124.699 114.729H131.926L130.362 111.887L129.935 111.113V111.118ZM126.201 103.124C125.671 103.625 124.924 103.875 123.96 103.875H121.107L122.072 98.8435H124.401C125.209 98.8435 125.84 99.0136 126.304 99.3516C126.768 99.6896 126.998 100.248 126.998 101.021C126.998 101.922 126.731 102.623 126.199 103.124H126.201Z" fill="white"/>
<path d="M150.129 104.229C149.837 104.02 149.518 103.836 149.176 103.673C150.246 103.204 151.107 102.566 151.752 101.759C152.49 100.838 152.859 99.7149 152.859 98.3856C152.859 96.7524 152.242 95.4889 151.001 94.5997C149.761 93.7105 147.913 93.2637 145.455 93.2637H134.51L133.816 96.8681L131.922 106.717L130.927 111.891L130.381 114.734H142.3C144.07 114.734 145.683 114.493 147.139 114.015C148.592 113.536 149.759 112.787 150.634 111.776C151.509 110.764 151.948 109.469 151.948 107.895C151.948 106.32 151.344 105.1 150.133 104.231L150.129 104.229ZM144.378 109.181C143.935 109.51 143.37 109.671 142.681 109.671H138.196L138.846 106.298H143.331C143.783 106.298 144.181 106.418 144.525 106.652C144.87 106.885 145.042 107.239 145.042 107.709C145.042 108.364 144.819 108.854 144.378 109.181ZM145.366 100.64C145.207 100.917 144.957 101.13 144.612 101.285C144.268 101.439 143.829 101.514 143.299 101.514H139.764L140.38 98.3244H143.77C144.339 98.3244 144.789 98.4333 145.113 98.6488C145.437 98.8643 145.598 99.1954 145.598 99.6446C145.598 100.035 145.52 100.366 145.363 100.643L145.366 100.64Z" fill="white"/>
<path d="M149.511 114.734L153.64 93.2637H160.603L156.474 114.734H149.511Z" fill="white"/>
<path d="M182.064 93.2612L177.935 114.731H172.212L166.28 104.744L164.365 114.731H157.579L161.708 93.2612H167.433L173.36 103.249L175.278 93.2612H182.064Z" fill="white"/>
<path d="M193.067 114.734H200L195.104 93.2637H188.26L175.103 114.734H182.45L184.514 110.991H192.382L193.071 114.734H193.067ZM187.387 105.778L190.412 100.298L191.42 105.778H187.387Z" fill="white"/>
<path d="M151.017 77.1922H128.911C128.39 77.1922 127.898 76.9381 127.6 76.514L125.069 72.9005C118.659 79.2269 109.811 83.1398 100.034 83.1398C90.2581 83.1398 81.3682 79.2088 74.9586 72.8596L72.398 76.5162C72.0995 76.9404 71.608 77.1945 71.0867 77.1945H48.9803C46.4082 77.1945 44.8925 74.3409 46.3577 72.2517L93.6432 4.75221C95.7284 1.77612 99.1594 0 102.825 0H119.915C122.488 0 124.003 2.85359 122.538 4.94275L87.3346 55.1937C89.8241 59.5807 94.5779 62.5409 100.034 62.5409C105.491 62.5409 110.201 59.6034 112.702 55.2481L103.029 41.5835L117.543 20.8643L153.64 72.2494C155.103 74.3409 153.589 77.1922 151.017 77.1922Z" fill="white"/>
<path d="M23.2454 123.02H26.5524C28.9339 123.02 30.5667 124.438 30.5667 126.615C30.5667 128.793 28.9339 130.211 26.5524 130.211H23.2454V123.022V123.02ZM26.4674 128.843C27.9119 128.843 28.8581 127.99 28.8581 126.613C28.8581 125.236 27.9119 124.386 26.4674 124.386H24.9287V128.843H26.4674Z" fill="white"/>
<path d="M34.0161 123.02H35.6995V130.208H34.0161V123.02Z" fill="white"/>
<path d="M39.0386 129.5L39.6104 128.248C40.2236 128.691 41.1399 128.997 42.0126 128.997C43.0116 128.997 43.4158 128.668 43.4158 128.226C43.4158 126.881 39.1833 127.804 39.1833 125.134C39.1833 123.911 40.1822 122.895 42.2514 122.895C43.1654 122.895 44.1024 123.111 44.7776 123.532L44.2586 124.796C43.5834 124.415 42.8853 124.231 42.2422 124.231C41.2432 124.231 40.8597 124.601 40.8597 125.052C40.8597 126.377 45.0922 125.463 45.0922 128.103C45.0922 129.305 44.084 130.331 42.0034 130.331C40.8482 130.331 39.6839 129.993 39.0409 129.498L39.0386 129.5Z" fill="white"/>
<path d="M54.0624 128.874V130.21H48.4268V123.022H53.9269V124.358H50.1009V125.919H53.4791V127.212H50.1009V128.877H54.0624V128.874Z" fill="white"/>
<path d="M64.2638 123.02V130.208H62.8813L59.2528 125.844V130.208H57.5901V123.02H58.9841L62.6034 127.384V123.02H64.2661H64.2638ZM59.7511 122.394H58.929C58.9496 121.48 59.4181 120.895 60.1461 120.895C60.8741 120.895 61.2278 121.552 61.6021 121.552C61.8823 121.552 62.0798 121.337 62.1005 120.999H62.9226C62.902 121.881 62.4335 122.469 61.7055 122.469C60.9775 122.469 60.6238 121.822 60.2495 121.822C59.9693 121.822 59.7718 122.029 59.7511 122.398V122.394Z" fill="white"/>
<path d="M72.9654 128.668H69.5872L68.9418 130.208H67.2148L70.4598 123.02H72.1225L75.3767 130.208H73.6084L72.9631 128.668H72.9654ZM72.4349 127.405L71.2797 124.653L70.1245 127.405H72.4326H72.4349Z" fill="white"/>
<path d="M78.3208 123.02H81.6278C84.0093 123.02 85.6421 124.438 85.6421 126.615C85.6421 128.793 84.0093 130.211 81.6278 130.211H78.3208V123.022V123.02ZM81.5451 128.843C82.9896 128.843 83.9358 127.99 83.9358 126.613C83.9358 125.236 82.9896 124.386 81.5451 124.386H80.0065V128.843H81.5451Z" fill="white"/>
<path d="M88.6367 126.613C88.6367 124.476 90.3201 122.895 92.6189 122.895C94.9177 122.895 96.6011 124.467 96.6011 126.613C96.6011 128.759 94.9062 130.331 92.6189 130.331C90.3316 130.331 88.6367 128.75 88.6367 126.613ZM94.8948 126.613C94.8948 125.247 93.9164 124.313 92.6189 124.313C91.3214 124.313 90.343 125.247 90.343 126.613C90.343 127.978 91.3214 128.913 92.6189 128.913C93.9164 128.913 94.8948 127.978 94.8948 126.613Z" fill="white"/>
<path d="M104.689 130.208L103.286 128.205H101.736V130.208H100.053V123.02H103.204C105.149 123.02 106.364 124.016 106.364 125.629C106.364 126.706 105.812 127.498 104.866 127.899L106.499 130.211H104.689V130.208ZM103.109 124.374H101.736V126.881H103.109C104.138 126.881 104.66 126.409 104.66 125.629C104.66 124.848 104.141 124.376 103.109 124.376V124.374Z" fill="white"/>
<path d="M119.922 126.502H121.461V129.419C120.66 130.016 119.557 130.333 118.519 130.333C116.232 130.333 114.549 128.782 114.549 126.615C114.549 124.449 116.232 122.897 118.551 122.897C119.831 122.897 120.892 123.328 121.599 124.141L120.517 125.127C119.987 124.574 119.374 124.315 118.636 124.315C117.222 124.315 116.255 125.25 116.255 126.615C116.255 127.981 117.222 128.915 118.616 128.915C119.073 128.915 119.5 128.834 119.927 128.607V126.502H119.922Z" fill="white"/>
<path d="M129.841 130.208L128.438 128.205H126.888V130.208H125.204V123.02H128.355C130.3 123.02 131.515 124.016 131.515 125.629C131.515 126.706 130.964 127.498 130.018 127.899L131.651 130.211H129.841V130.208ZM128.261 124.374H126.888V126.881H128.261C129.29 126.881 129.811 126.409 129.811 125.629C129.811 124.848 129.292 124.376 128.261 124.376V124.374Z" fill="white"/>
<path d="M139.822 128.668H136.444L135.798 130.208H134.071L137.316 123.02H138.979L142.233 130.208H140.465L139.82 128.668H139.822ZM139.294 127.405L138.138 124.653L136.983 127.405H139.291H139.294ZM138.471 122.435H137.204L138.607 120.956H140.355L138.474 122.435H138.471Z" fill="white"/>
<path d="M146.863 124.354V126.255H150.232V127.591H146.863V130.208H145.18V123.02H150.68V124.356H146.863V124.354Z" fill="white"/>
<path d="M154.005 123.02H155.688V130.208H154.005V123.02Z" fill="white"/>
<path d="M159.143 126.613C159.143 124.447 160.826 122.895 163.093 122.895C164.351 122.895 165.401 123.346 166.087 124.168L165.006 125.154C164.516 124.601 163.903 124.313 163.175 124.313C161.813 124.313 160.847 125.259 160.847 126.613C160.847 127.967 161.813 128.913 163.175 128.913C163.903 128.913 164.516 128.625 165.006 128.06L166.087 129.047C165.401 129.879 164.351 130.331 163.083 130.331C160.828 130.331 159.143 128.779 159.143 126.613Z" fill="white"/>
<path d="M168.79 126.613C168.79 124.476 170.473 122.895 172.772 122.895C175.071 122.895 176.754 124.467 176.754 126.613C176.754 128.759 175.06 130.331 172.772 130.331C170.485 130.331 168.79 128.75 168.79 126.613ZM175.05 126.613C175.05 125.247 174.072 124.313 172.772 124.313C171.472 124.313 170.496 125.247 170.496 126.613C170.496 127.978 171.472 128.913 172.772 128.913C174.072 128.913 175.05 127.978 175.05 126.613Z" fill="white"/>
<path d="M80.5345 138.263V134.237H82.2179V138.202C82.2179 139.567 82.8219 140.132 83.8392 140.132C84.8566 140.132 85.4606 139.567 85.4606 138.202V134.237H87.1233V138.263C87.1233 140.38 85.8969 141.55 83.8277 141.55C81.7586 141.55 80.5322 140.38 80.5322 138.263H80.5345Z" fill="white"/>
<path d="M95.4551 141.425L93.6983 138.93L91.9713 141.425H90.0376L92.7314 137.769L90.1731 134.237H92.0861L93.7603 136.569L95.4023 134.237H97.2211L94.6835 137.707L97.398 141.425H95.4528H95.4551Z" fill="white"/>
<path d="M102.85 132.778H104.294L100.863 142.453H99.4189L102.85 132.778Z" fill="white"/>
<path d="M106.821 138.263V134.237H108.504V138.202C108.504 139.567 109.108 140.132 110.125 140.132C111.143 140.132 111.747 139.567 111.747 138.202V134.237H113.409V138.263C113.409 140.38 112.183 141.55 110.114 141.55C108.045 141.55 106.818 140.38 106.818 138.263H106.821Z" fill="white"/>
<path d="M117.261 134.237H118.944V141.425H117.261V134.237Z" fill="white"/>
</g>
<defs>
<clipPath id="clip0_76_526">
<rect width="200" height="142.453" fill="white"/>
</clipPath>
</defs>
</svg>
