<svg width="185" height="33" viewBox="0 0 185 33" fill="none" xmlns="http://www.w3.org/2000/svg">
<g clip-path="url(#clip0_76_618)">
<path d="M63.0453 24.9141H68.6327L64.6851 7.69467H59.1662L48.5566 24.9141H54.478L56.1435 21.9145H62.4844L63.041 24.9141H63.0453ZM58.4641 17.7285L60.9003 13.3321L61.7137 17.7285H58.4641Z" fill="url(#paint0_linear_76_618)"/>
<path d="M73.0984 21.1025L75.1707 10.3409H70.4225L67.6052 24.9098H73.4281L75.7744 21.1025H73.0984Z" fill="url(#paint1_linear_76_618)"/>
<path d="M87.908 10.3409H83.2411L76.6134 21.1025L74.2671 24.9098H79.2765L80.6851 22.3688H86.0541L86.5251 24.9098H91.2561L87.9166 10.3409H87.908ZM82.646 18.8349L84.7097 15.1159L85.399 18.8349H82.646Z" fill="url(#paint2_linear_76_618)"/>
<path d="M105.634 10.3409L102.816 24.9141H98.9116L94.8699 18.1323L93.5597 24.9141H88.9314L91.7486 10.3409H95.6534L99.6994 17.1184L101.005 10.3409H105.634Z" fill="url(#paint3_linear_76_618)"/>
<path d="M116.504 25.3053C114.775 25.3053 113.332 24.9646 112.176 24.283C111.02 23.6015 110.198 22.6507 109.714 21.4306C109.23 20.2106 109.149 18.7844 109.466 17.1605L111.298 7.69046H116.911L115.104 17.0637C114.993 17.6696 114.955 18.1954 114.985 18.6372C115.015 19.0789 115.122 19.4491 115.306 19.7436C115.49 20.0381 115.738 20.2569 116.055 20.3957C116.372 20.5345 116.753 20.6061 117.198 20.6061C117.738 20.6061 118.2 20.4925 118.59 20.2611C118.979 20.0297 119.305 19.6553 119.566 19.1294C119.827 18.6035 120.037 17.9178 120.195 17.0637L122.002 7.69046H127.521L125.641 17.4087C125.149 19.9834 124.143 21.9439 122.623 23.2902C121.099 24.6364 119.065 25.3053 116.509 25.3053H116.504Z" fill="url(#paint4_linear_76_618)"/>
<path d="M137.201 22.4614L136.212 20.6734C136.362 20.6145 136.512 20.5472 136.653 20.4798C137.034 20.2989 137.381 20.0886 137.702 19.853L139.158 12.3182C138.965 12.0574 138.734 11.8176 138.473 11.603C137.454 10.7616 136.011 10.3409 134.144 10.3409H127.825L125.007 24.9098H129.756L130.466 21.2455H131.622L133.622 24.9098H138.55L137.484 22.983L137.193 22.4571L137.201 22.4614ZM134.654 17.0343C134.29 17.375 133.784 17.5433 133.125 17.5433H131.181L131.841 14.1314H133.429C133.981 14.1314 134.41 14.245 134.726 14.4764C135.043 14.7036 135.202 15.0822 135.202 15.6081C135.202 16.2181 135.022 16.6935 134.658 17.0343H134.654Z" fill="url(#paint5_linear_76_618)"/>
<path d="M150.975 17.7831C150.778 17.6401 150.56 17.5181 150.324 17.4045C151.052 17.0848 151.643 16.6514 152.084 16.1045C152.585 15.4819 152.837 14.7162 152.837 13.8159C152.837 12.7052 152.414 11.8512 151.57 11.2454C150.727 10.6438 149.464 10.3409 147.785 10.3409H140.318L139.843 12.7894L138.55 19.4744L137.873 22.9872L137.501 24.9141H145.632C146.839 24.9141 147.939 24.75 148.933 24.426C149.926 24.1021 150.718 23.593 151.317 22.9073C151.913 22.2216 152.212 21.3423 152.212 20.2737C152.212 19.2051 151.801 18.3763 150.975 17.7873V17.7831ZM147.053 21.1446C146.749 21.3675 146.364 21.4769 145.897 21.4769H142.836L143.277 19.1883H146.338C146.646 19.1883 146.916 19.2682 147.152 19.4281C147.387 19.5879 147.503 19.8278 147.503 20.1433C147.503 20.5892 147.348 20.9216 147.049 21.1403L147.053 21.1446ZM147.725 15.3473C147.618 15.5366 147.447 15.6796 147.211 15.7848C146.976 15.89 146.676 15.9404 146.317 15.9404H143.906L144.326 13.7738H146.638C147.027 13.7738 147.331 13.8495 147.554 13.9926C147.777 14.1398 147.884 14.3628 147.884 14.6699C147.884 14.935 147.828 15.1621 147.725 15.3473Z" fill="url(#paint6_linear_76_618)"/>
<path d="M150.555 24.9141L153.372 10.3451H158.121L155.303 24.9141H150.555Z" fill="url(#paint7_linear_76_618)"/>
<path d="M172.764 10.3409L169.946 24.9141H166.042L161.996 18.1323L160.69 24.9141H156.057L158.874 10.3409H162.783L166.825 17.1184L168.135 10.3409H172.764Z" fill="url(#paint8_linear_76_618)"/>
<path d="M180.269 24.9141H185L181.66 10.3451H176.994L168.02 24.9141H173.029L174.438 22.373H179.807L180.278 24.9141H180.269ZM176.394 18.8349L178.458 15.1159L179.147 18.8349H176.398H176.394Z" fill="url(#paint9_linear_76_618)"/>
<path d="M41.989 30.6399H33.1691C32.9593 30.6399 32.7666 30.5389 32.6467 30.3706L31.6363 28.936C29.0802 31.4476 25.548 33 21.6475 33C17.747 33 14.1977 31.4392 11.6416 28.9192L10.6183 30.3706C10.4984 30.5389 10.3015 30.6399 10.096 30.6399H1.27605C0.248485 30.6399 -0.355208 29.5082 0.231359 28.6794L19.0957 1.88475C19.9263 0.702575 21.2964 0 22.7607 0H29.5811C30.6087 0 31.2124 1.13169 30.6258 1.96048L16.5782 21.906C17.5715 23.6478 19.4682 24.8215 21.6432 24.8215C23.8182 24.8215 25.6978 23.6562 26.6954 21.9271L22.8378 16.5042L28.6307 8.27945L43.0337 28.6752C43.616 29.504 43.0123 30.6356 41.989 30.6356V30.6399Z" fill="url(#paint10_linear_76_618)"/>
</g>
<defs>
<linearGradient id="paint0_linear_76_618" x1="58.5968" y1="27.0723" x2="58.5968" y2="7.91764" gradientUnits="userSpaceOnUse">
<stop stop-color="#005CC0"/>
<stop offset="0.98" stop-color="#00BFD9"/>
</linearGradient>
<linearGradient id="paint1_linear_76_618" x1="71.6898" y1="27.0723" x2="71.6898" y2="7.91763" gradientUnits="userSpaceOnUse">
<stop stop-color="#005CC0"/>
<stop offset="0.98" stop-color="#00BFD9"/>
</linearGradient>
<linearGradient id="paint2_linear_76_618" x1="82.7573" y1="27.0723" x2="82.7573" y2="7.91763" gradientUnits="userSpaceOnUse">
<stop stop-color="#005CC0"/>
<stop offset="0.98" stop-color="#00BFD9"/>
</linearGradient>
<linearGradient id="paint3_linear_76_618" x1="97.2846" y1="27.0723" x2="97.2846" y2="7.91763" gradientUnits="userSpaceOnUse">
<stop stop-color="#005CC0"/>
<stop offset="0.98" stop-color="#00BFD9"/>
</linearGradient>
<linearGradient id="paint4_linear_76_618" x1="118.397" y1="27.0723" x2="118.397" y2="7.91764" gradientUnits="userSpaceOnUse">
<stop stop-color="#005CC0"/>
<stop offset="0.98" stop-color="#00BFD9"/>
</linearGradient>
<linearGradient id="paint5_linear_76_618" x1="132.089" y1="27.0723" x2="132.089" y2="7.91763" gradientUnits="userSpaceOnUse">
<stop stop-color="#005CC0"/>
<stop offset="0.98" stop-color="#00BFD9"/>
</linearGradient>
<linearGradient id="paint6_linear_76_618" x1="145.169" y1="27.0723" x2="145.169" y2="7.91763" gradientUnits="userSpaceOnUse">
<stop stop-color="#005CC0"/>
<stop offset="0.98" stop-color="#00BFD9"/>
</linearGradient>
<linearGradient id="paint7_linear_76_618" x1="154.34" y1="27.0723" x2="154.34" y2="7.91763" gradientUnits="userSpaceOnUse">
<stop stop-color="#005CC0"/>
<stop offset="0.98" stop-color="#00BFD9"/>
</linearGradient>
<linearGradient id="paint8_linear_76_618" x1="164.41" y1="27.0723" x2="164.41" y2="7.91763" gradientUnits="userSpaceOnUse">
<stop stop-color="#005CC0"/>
<stop offset="0.98" stop-color="#00BFD9"/>
</linearGradient>
<linearGradient id="paint9_linear_76_618" x1="176.505" y1="27.0723" x2="176.505" y2="7.91763" gradientUnits="userSpaceOnUse">
<stop stop-color="#005CC0"/>
<stop offset="0.98" stop-color="#00BFD9"/>
</linearGradient>
<linearGradient id="paint10_linear_76_618" x1="40.4905" y1="-1.41777" x2="15.2702" y2="41.2497" gradientUnits="userSpaceOnUse">
<stop stop-color="#005CC0"/>
<stop offset="0.98" stop-color="#00BFD9"/>
</linearGradient>
<clipPath id="clip0_76_618">
<rect width="185" height="33" fill="white"/>
</clipPath>
</defs>
</svg>
