<svg width="252" height="45" viewBox="0 0 252 45" fill="none" xmlns="http://www.w3.org/2000/svg">
<g clip-path="url(#clip0_76_618)">
<path d="M85.878 33.9737H93.4889L88.1117 10.4927H80.5941L66.1421 33.9737H74.2079L76.4766 29.8834H85.114L85.8721 33.9737H85.878ZM79.6376 24.1752L82.9561 18.1801L84.0642 24.1752H79.6376Z" fill="url(#paint0_linear_76_618)"/>
<path d="M99.572 28.7761L102.395 14.1012H95.9269L92.0894 33.968H100.021L103.217 28.7761H99.572Z" fill="url(#paint1_linear_76_618)"/>
<path d="M119.745 14.1012H113.388L104.36 28.7761L101.164 33.968H107.988L109.906 30.5029H117.22L117.861 33.968H124.306L119.757 14.1012H119.745ZM112.578 25.684L115.389 20.6126L116.328 25.684H112.578Z" fill="url(#paint2_linear_76_618)"/>
<path d="M143.89 14.1012L140.053 33.9737H134.734L129.228 24.7259L127.444 33.9737H121.139L124.977 14.1012H130.296L135.807 23.3433L137.586 14.1012H143.89Z" fill="url(#paint3_linear_76_618)"/>
<path d="M158.698 34.5073C156.342 34.5073 154.376 34.0426 152.801 33.1132C151.227 32.1838 150.107 30.8873 149.448 29.2236C148.789 27.5599 148.678 25.6151 149.11 23.4007L151.606 10.487H159.252L156.791 23.2687C156.639 24.0949 156.587 24.812 156.627 25.4143C156.668 26.0167 156.814 26.5215 157.065 26.9231C157.316 27.3247 157.654 27.623 158.085 27.8123C158.517 28.0017 159.036 28.0992 159.643 28.0992C160.377 28.0992 161.007 27.9443 161.538 27.6288C162.069 27.3132 162.512 26.8027 162.868 26.0855C163.223 25.3684 163.509 24.4333 163.725 23.2687L166.186 10.487H173.704L171.143 23.7392C170.473 27.2501 169.102 29.9235 167.032 31.7593C164.956 33.5951 162.185 34.5073 158.704 34.5073H158.698Z" fill="url(#paint4_linear_76_618)"/>
<path d="M186.89 30.6291L185.543 28.191C185.747 28.1107 185.951 28.0189 186.144 27.9271C186.663 27.6804 187.135 27.3936 187.572 27.0723L189.555 16.7976C189.293 16.4419 188.978 16.1149 188.622 15.8223C187.234 14.6749 185.269 14.1012 182.726 14.1012H174.118L170.28 33.968H176.748L177.716 28.9712H179.291L182.014 33.968H188.727L187.275 31.3405L186.878 30.6234L186.89 30.6291ZM183.42 23.2286C182.924 23.6933 182.236 23.9227 181.338 23.9227H178.69L179.588 19.2701H181.752C182.504 19.2701 183.088 19.425 183.519 19.7406C183.951 20.0504 184.167 20.5667 184.167 21.2838C184.167 22.1156 183.922 22.7639 183.426 23.2286H183.42Z" fill="url(#paint5_linear_76_618)"/>
<path d="M205.652 24.2497C205.384 24.0547 205.086 23.8883 204.766 23.7334C205.757 23.2974 206.562 22.7065 207.163 21.9607C207.845 21.1117 208.189 20.0676 208.189 18.8399C208.189 17.3253 207.612 16.1608 206.463 15.3347C205.314 14.5143 203.593 14.1012 201.307 14.1012H191.136L190.489 17.4401L188.727 26.556L187.806 31.3463L187.298 33.9737H198.374C200.018 33.9737 201.517 33.75 202.87 33.3083C204.223 32.8665 205.302 32.1724 206.119 31.2373C206.929 30.3021 207.338 29.1031 207.338 27.646C207.338 26.1888 206.778 25.0586 205.652 24.2555V24.2497ZM200.31 28.8335C199.896 29.1376 199.371 29.2867 198.735 29.2867H194.565L195.166 26.1659H199.336C199.756 26.1659 200.123 26.2749 200.444 26.4929C200.765 26.7109 200.922 27.0379 200.922 27.4681C200.922 28.0762 200.712 28.5295 200.304 28.8278L200.31 28.8335ZM201.225 20.9281C201.08 21.1863 200.846 21.3813 200.526 21.5247C200.205 21.6682 199.797 21.737 199.307 21.737H196.023L196.595 18.7825H199.744C200.275 18.7825 200.689 18.8858 200.992 19.0808C201.295 19.2816 201.441 19.5857 201.441 20.0045C201.441 20.3659 201.365 20.6757 201.225 20.9281Z" fill="url(#paint6_linear_76_618)"/>
<path d="M205.081 33.9737L208.918 14.107H215.386L211.548 33.9737H205.081Z" fill="url(#paint7_linear_76_618)"/>
<path d="M235.332 14.1012L231.494 33.9737H226.175L220.664 24.7259L218.885 33.9737H212.575L216.412 14.1012H221.737L227.242 23.3433L229.027 14.1012H235.332Z" fill="url(#paint8_linear_76_618)"/>
<path d="M245.555 33.9737H252L247.451 14.107H241.094L228.87 33.9737H235.693L237.612 30.5087H244.925L245.567 33.9737H245.555ZM240.277 25.684L243.088 20.6126L244.027 25.684H240.283H240.277Z" fill="url(#paint9_linear_76_618)"/>
<path d="M57.1958 41.7816H45.1816C44.8958 41.7816 44.6334 41.6439 44.4701 41.4145L43.0937 39.4582C39.6119 42.8831 34.8004 45 29.4874 45C24.1743 45 19.3395 42.8716 15.8577 39.4352L14.4638 41.4145C14.3005 41.6439 14.0322 41.7816 13.7523 41.7816H1.73814C0.338435 41.7816 -0.483893 40.2384 0.315107 39.1082L26.0114 2.57012C27.1429 0.958057 29.0091 0 31.0037 0H40.2943C41.694 0 42.5163 1.54322 41.7173 2.67338L22.5821 29.8719C23.9352 32.2469 26.5188 33.8475 29.4815 33.8475C32.4442 33.8475 35.0045 32.2584 36.3634 29.9006L31.1087 22.5057L38.9996 11.2902L58.6188 39.1025C59.412 40.2327 58.5896 41.7759 57.1958 41.7759V41.7816Z" fill="url(#paint10_linear_76_618)"/>
</g>
<defs>
<linearGradient id="paint0_linear_76_618" x1="79.8184" y1="36.9168" x2="79.8184" y2="10.7968" gradientUnits="userSpaceOnUse">
<stop stop-color="#005CC0"/>
<stop offset="0.98" stop-color="#00BFD9"/>
</linearGradient>
<linearGradient id="paint1_linear_76_618" x1="97.6532" y1="36.9168" x2="97.6532" y2="10.7968" gradientUnits="userSpaceOnUse">
<stop stop-color="#005CC0"/>
<stop offset="0.98" stop-color="#00BFD9"/>
</linearGradient>
<linearGradient id="paint2_linear_76_618" x1="112.729" y1="36.9168" x2="112.729" y2="10.7968" gradientUnits="userSpaceOnUse">
<stop stop-color="#005CC0"/>
<stop offset="0.98" stop-color="#00BFD9"/>
</linearGradient>
<linearGradient id="paint3_linear_76_618" x1="132.518" y1="36.9168" x2="132.518" y2="10.7968" gradientUnits="userSpaceOnUse">
<stop stop-color="#005CC0"/>
<stop offset="0.98" stop-color="#00BFD9"/>
</linearGradient>
<linearGradient id="paint4_linear_76_618" x1="161.276" y1="36.9168" x2="161.276" y2="10.7968" gradientUnits="userSpaceOnUse">
<stop stop-color="#005CC0"/>
<stop offset="0.98" stop-color="#00BFD9"/>
</linearGradient>
<linearGradient id="paint5_linear_76_618" x1="179.927" y1="36.9168" x2="179.927" y2="10.7968" gradientUnits="userSpaceOnUse">
<stop stop-color="#005CC0"/>
<stop offset="0.98" stop-color="#00BFD9"/>
</linearGradient>
<linearGradient id="paint6_linear_76_618" x1="197.744" y1="36.9168" x2="197.744" y2="10.7968" gradientUnits="userSpaceOnUse">
<stop stop-color="#005CC0"/>
<stop offset="0.98" stop-color="#00BFD9"/>
</linearGradient>
<linearGradient id="paint7_linear_76_618" x1="210.236" y1="36.9168" x2="210.236" y2="10.7968" gradientUnits="userSpaceOnUse">
<stop stop-color="#005CC0"/>
<stop offset="0.98" stop-color="#00BFD9"/>
</linearGradient>
<linearGradient id="paint8_linear_76_618" x1="223.953" y1="36.9168" x2="223.953" y2="10.7968" gradientUnits="userSpaceOnUse">
<stop stop-color="#005CC0"/>
<stop offset="0.98" stop-color="#00BFD9"/>
</linearGradient>
<linearGradient id="paint9_linear_76_618" x1="240.429" y1="36.9168" x2="240.429" y2="10.7968" gradientUnits="userSpaceOnUse">
<stop stop-color="#005CC0"/>
<stop offset="0.98" stop-color="#00BFD9"/>
</linearGradient>
<linearGradient id="paint10_linear_76_618" x1="55.1545" y1="-1.93333" x2="20.7453" y2="56.217" gradientUnits="userSpaceOnUse">
<stop stop-color="#005CC0"/>
<stop offset="0.98" stop-color="#00BFD9"/>
</linearGradient>
<clipPath id="clip0_76_618">
<rect width="252" height="45" fill="white"/>
</clipPath>
</defs>
</svg>
