<svg width="50" height="50" viewBox="0 0 50 50" fill="none" xmlns="http://www.w3.org/2000/svg">
<circle cx="25" cy="25" r="25" fill="#DFF3FF"/>
<path d="M10 35.7301V14.3532C10 14.2078 10.0623 14.1246 10.2077 14.1246C10.5609 14.1246 10.8933 14.1246 11.3711 14.1039C11.8697 14.0832 12.389 14.0832 12.9499 14.0623C13.5108 14.0415 14.1133 14.0416 14.7573 14.0207C15.4013 14 16.0245 14 16.6478 14C18.3512 14 19.7639 14.2077 20.9273 14.644C21.9661 14.9972 22.9217 15.5788 23.7111 16.3474C24.376 17.0123 24.8953 17.8225 25.2276 18.7157C25.5393 19.5883 25.7055 20.4815 25.7055 21.4164C25.7055 23.203 25.29 24.6779 24.459 25.8413C23.6281 27.0047 22.4647 27.8773 21.1143 28.3759C19.7016 28.8952 18.1435 29.0822 16.44 29.0822C15.9415 29.0822 15.6091 29.0822 15.4013 29.0614C15.1936 29.0407 14.9027 29.0407 14.508 29.0407V35.7093C14.5288 35.8547 14.425 35.9793 14.2795 36.0001C14.2587 36.0001 14.2379 36.0001 14.1964 36.0001H10.2493C10.0831 36.0001 10 35.9171 10 35.7301ZM14.5289 18.1342V25.1144C14.8197 25.1351 15.0898 25.156 15.3391 25.156H16.4401C17.8747 25.156 19.5314 24.8188 20.5326 23.6811C21.3944 22.7018 21.3968 20.7598 20.6989 19.6924C19.8704 18.4252 18.2135 18.058 16.7932 18.0927C16.2531 18.0927 15.7753 18.0927 15.3806 18.1134C14.9651 18.0926 14.6743 18.1133 14.5289 18.1342Z" fill="#00A9FF"/>
<path d="M38.6688 23.8471C38.0455 23.5147 37.3807 23.2862 36.6744 23.1408C35.9058 22.9746 35.1371 22.8708 34.3477 22.8708C33.9322 22.85 33.4959 22.9123 33.1013 23.0161C32.8312 23.0785 32.6027 23.2239 32.4573 23.4317C32.3534 23.5979 32.2911 23.8056 32.2911 23.9926C32.2911 24.1795 32.3741 24.3665 32.4988 24.5327C32.6857 24.7613 32.935 24.9483 33.2051 25.0937C33.6829 25.3429 34.1815 25.5715 34.6801 25.7792C35.8019 26.1532 36.8821 26.6725 37.8793 27.2957C38.5649 27.732 39.1258 28.3136 39.5205 29.02C39.8528 29.6848 40.0191 30.4119 39.9983 31.1598C40.0191 32.1362 39.7283 33.1125 39.1881 33.9227C38.6065 34.7537 37.7963 35.3978 36.8614 35.7717C35.8435 36.208 34.597 36.4365 33.1013 36.4365C32.1457 36.4365 31.2108 36.3534 30.276 36.1665C29.5488 36.0418 28.8218 35.8133 28.157 35.5017C28.0116 35.4186 27.9077 35.2731 27.9284 35.107V31.4922C27.9284 31.4299 27.9492 31.3468 28.0115 31.3052C28.0738 31.2637 28.1361 31.2845 28.1985 31.326C29.0087 31.8038 29.8604 32.1362 30.7745 32.3439C31.5639 32.5516 32.3949 32.6555 33.2258 32.6555C34.0153 32.6555 34.5762 32.5516 34.9501 32.3646C35.2825 32.2193 35.511 31.8661 35.511 31.4921C35.511 31.2012 35.3448 30.9312 35.0124 30.6612C34.6801 30.3911 33.9945 30.0795 32.9765 29.6847C31.917 29.3108 30.9406 28.8122 30.0266 28.189C29.3826 27.732 28.8424 27.1295 28.4477 26.4232C28.1154 25.7584 27.9492 25.0313 27.9699 24.3042C27.9699 23.4109 28.2192 22.5591 28.6762 21.7905C29.1955 20.9596 29.9642 20.2948 30.8575 19.8792C31.8339 19.3807 33.0596 19.1521 34.5346 19.1521C35.3864 19.1521 36.2589 19.2144 37.1106 19.3391C37.7338 19.4221 38.3363 19.5884 38.8972 19.8169C38.9803 19.8377 39.0635 19.9208 39.1049 20.0039C39.1257 20.0869 39.1465 20.1701 39.1465 20.2532V23.6394C39.1465 23.7224 39.1049 23.8056 39.0426 23.8471C38.8557 23.8887 38.7518 23.8887 38.6688 23.8471Z" fill="#00A9FF"/>
</svg>
