<svg width="50" height="50" viewBox="0 0 50 50" fill="none" xmlns="http://www.w3.org/2000/svg">
<circle cx="25" cy="25" r="25" fill="#DFF3FF"/>
<path d="M17.7412 14C19.4686 14 20.9012 14.2106 22.0809 14.653C24.062 15.3959 25.6913 16.7651 26.4418 18.7822C26.7578 19.667 26.9264 20.5729 26.9264 21.5209C26.9264 24.627 25.2876 27.4643 22.2706 28.5783C20.8381 29.1049 19.2581 29.2945 17.5306 29.2945C17.025 29.2945 16.6879 29.2945 16.4773 29.2735C16.2666 29.2525 15.9717 29.2525 15.5714 29.2525V36.0149C15.5925 36.1624 15.4872 36.2888 15.3397 36.3099C15.3187 36.3099 15.2975 36.3099 15.2555 36.3099H11.2528C11.0842 36.3099 11 36.2257 11 36.0361V14.3581C11 14.2106 11.0632 14.1263 11.2106 14.1263C11.5688 14.1263 11.9058 14.1263 12.3904 14.1053L17.7412 14ZM15.5924 18.1923V25.2707C15.8873 25.2918 16.1612 25.3129 16.414 25.3129H17.5305C18.3521 25.3129 19.1737 25.1865 19.9531 24.9337C21.4618 24.4444 22.3337 23.217 22.3337 21.6474C22.3337 20.3327 21.6388 19.0511 20.3746 18.5715C19.5951 18.2556 18.7524 18.1292 17.8887 18.1502C17.3409 18.1502 16.8564 18.1502 16.4561 18.1712C16.0348 18.1501 15.7398 18.1712 15.5924 18.1923Z" fill="#9999FF"/>
<path d="M29.8757 19.4142H33.5624C33.773 19.4142 33.9416 19.5616 34.0047 19.7512C34.0679 19.9197 34.1101 20.0882 34.1311 20.2778C34.1733 20.4884 34.2154 20.7202 34.2365 20.9308C34.2575 21.1626 34.2787 21.4154 34.2787 21.6892C34.9107 20.9519 35.6691 20.3409 36.5328 19.8775C37.5019 19.3297 38.6185 19.0559 39.735 19.0559C39.8824 19.0349 40.0088 19.1401 40.03 19.2877V19.3719V23.4799C40.03 23.6485 39.9246 23.7117 39.6929 23.7117C38.9346 23.6906 38.155 23.7538 37.4177 23.9223C36.8067 24.0487 36.2169 24.2383 35.648 24.4911C35.2478 24.6807 34.8686 24.9335 34.5736 25.2705V36.0146C34.5736 36.2252 34.4894 36.3096 34.2998 36.3096H30.1496C29.9811 36.3306 29.8336 36.2253 29.8126 36.0568C29.8126 36.0358 29.8126 35.9936 29.8126 35.9726V24.3015C29.8126 23.7959 29.8126 23.2692 29.7916 22.7215C29.7705 22.1738 29.7705 21.626 29.7494 21.0784C29.7494 20.5938 29.7072 20.1304 29.6652 19.6458C29.6441 19.5405 29.7073 19.4352 29.8126 19.4141C29.8125 19.393 29.8546 19.393 29.8757 19.4142Z" fill="#9999FF"/>
</svg>
